<?xml version="1.0" standalone="no"?>
 <!DOCTYPE svg PUBLIC "-//W3C//DTD SVG 1.1//EN" 
 "http://www.w3.org/Graphics/SVG/1.1/DTD/svg11.dtd"> 
<svg
  xmlns:svg="http://www.w3.org/2000/svg"
  xmlns="http://www.w3.org/2000/svg"
  xmlns:xlink="http://www.w3.org/1999/xlink"
  version="1.1"
  width="89.1032mm" height="136.5250mm" viewBox="0.0000 0.0000 89.1032 136.5250">
<title>SVG Image created as kicad-cli-mainboard.svg date 2026/05/20 06:33:11 </title>
  <desc>Image generated by PCBNEW </desc>
<g style="fill:#000000; fill-opacity:1.0000;stroke:#000000; stroke-opacity:1.0000;
stroke-linecap:round; stroke-linejoin:round;"
 transform="translate(0 0) scale(1 1)">
</g>
<g style="fill:#000000; fill-opacity:0.0; 
stroke:#000000; stroke-width:0.0000; stroke-opacity:1; 
stroke-linecap:round; stroke-linejoin:round;">
<g >
</g>
<g >
</g>
<g >
</g>
</g>
<g style="fill:#FFFFFF; fill-opacity:0.0; 
stroke:#FFFFFF; stroke-width:0.0000; stroke-opacity:1; 
stroke-linecap:round; stroke-linejoin:round;">
</g>
<g style="fill:#000000; fill-opacity:0.0; 
stroke:#000000; stroke-width:0.0000; stroke-opacity:1; 
stroke-linecap:round; stroke-linejoin:round;">
<g >
</g>
<g >
</g>
<g >
</g>
</g>
<g style="fill:#FFFFFF; fill-opacity:0.0; 
stroke:#FFFFFF; stroke-width:0.0000; stroke-opacity:1; 
stroke-linecap:round; stroke-linejoin:round;">
</g>
<g style="fill:#000000; fill-opacity:0.0; 
stroke:#000000; stroke-width:0.0000; stroke-opacity:1; 
stroke-linecap:round; stroke-linejoin:round;">
</g>
<g style="fill:#000000; fill-opacity:0.0; 
stroke:#000000; stroke-width:0.2500; stroke-opacity:1; 
stroke-linecap:round; stroke-linejoin:round;">
<text x="44.5560" y="136.0750"
textLength="89.1119" font-size="2.6667" lengthAdjust="spacingAndGlyphs"
text-anchor="middle" opacity="0">E1 PHONE MAINBOARD CONCEPT - NOT FABRICATION DATA</text>
<g class="stroked-text"><desc>E1 PHONE MAINBOARD CONCEPT - NOT FABRICATION DATA</desc>
<path d="M0.6512 134.7696
L1.3179 134.7696
" />
<path d="M1.6036 135.8172
L0.6512 135.8172
" />
<path d="M0.6512 135.8172
L0.6512 133.8172
" />
<path d="M0.6512 133.8172
L1.6036 133.8172
" />
<path d="M3.5083 135.8172
L2.3655 135.8172
" />
<path d="M2.9369 135.8172
L2.9369 133.8172
" />
<path d="M2.9369 133.8172
L2.7464 134.1030
" />
<path d="M2.7464 134.1030
L2.5560 134.2934
" />
<path d="M2.5560 134.2934
L2.3655 134.3887
" />
<path d="M5.8893 135.8172
L5.8893 133.8172
" />
<path d="M5.8893 133.8172
L6.6512 133.8172
" />
<path d="M6.6512 133.8172
L6.8417 133.9125
" />
<path d="M6.8417 133.9125
L6.9369 134.0077
" />
<path d="M6.9369 134.0077
L7.0321 134.1982
" />
<path d="M7.0321 134.1982
L7.0321 134.4839
" />
<path d="M7.0321 134.4839
L6.9369 134.6744
" />
<path d="M6.9369 134.6744
L6.8417 134.7696
" />
<path d="M6.8417 134.7696
L6.6512 134.8649
" />
<path d="M6.6512 134.8649
L5.8893 134.8649
" />
<path d="M7.8893 135.8172
L7.8893 133.8172
" />
<path d="M7.8893 134.7696
L9.0321 134.7696
" />
<path d="M9.0321 135.8172
L9.0321 133.8172
" />
<path d="M10.3655 133.8172
L10.7464 133.8172
" />
<path d="M10.7464 133.8172
L10.9369 133.9125
" />
<path d="M10.9369 133.9125
L11.1274 134.1030
" />
<path d="M11.1274 134.1030
L11.2226 134.4839
" />
<path d="M11.2226 134.4839
L11.2226 135.1506
" />
<path d="M11.2226 135.1506
L11.1274 135.5315
" />
<path d="M11.1274 135.5315
L10.9369 135.7220
" />
<path d="M10.9369 135.7220
L10.7464 135.8172
" />
<path d="M10.7464 135.8172
L10.3655 135.8172
" />
<path d="M10.3655 135.8172
L10.1750 135.7220
" />
<path d="M10.1750 135.7220
L9.9845 135.5315
" />
<path d="M9.9845 135.5315
L9.8893 135.1506
" />
<path d="M9.8893 135.1506
L9.8893 134.4839
" />
<path d="M9.8893 134.4839
L9.9845 134.1030
" />
<path d="M9.9845 134.1030
L10.1750 133.9125
" />
<path d="M10.1750 133.9125
L10.3655 133.8172
" />
<path d="M12.0798 135.8172
L12.0798 133.8172
" />
<path d="M12.0798 133.8172
L13.2226 135.8172
" />
<path d="M13.2226 135.8172
L13.2226 133.8172
" />
<path d="M14.1750 134.7696
L14.8417 134.7696
" />
<path d="M15.1274 135.8172
L14.1750 135.8172
" />
<path d="M14.1750 135.8172
L14.1750 133.8172
" />
<path d="M14.1750 133.8172
L15.1274 133.8172
" />
<path d="M17.5083 135.8172
L17.5083 133.8172
" />
<path d="M17.5083 133.8172
L18.1750 135.2458
" />
<path d="M18.1750 135.2458
L18.8417 133.8172
" />
<path d="M18.8417 133.8172
L18.8417 135.8172
" />
<path d="M19.6988 135.2458
L20.6512 135.2458
" />
<path d="M19.5083 135.8172
L20.1750 133.8172
" />
<path d="M20.1750 133.8172
L20.8417 135.8172
" />
<path d="M21.5083 135.8172
L21.5083 133.8172
" />
<path d="M22.4607 135.8172
L22.4607 133.8172
" />
<path d="M22.4607 133.8172
L23.6036 135.8172
" />
<path d="M23.6036 135.8172
L23.6036 133.8172
" />
<path d="M25.2226 134.7696
L25.5083 134.8649
" />
<path d="M25.5083 134.8649
L25.6036 134.9601
" />
<path d="M25.6036 134.9601
L25.6988 135.1506
" />
<path d="M25.6988 135.1506
L25.6988 135.4363
" />
<path d="M25.6988 135.4363
L25.6036 135.6268
" />
<path d="M25.6036 135.6268
L25.5083 135.7220
" />
<path d="M25.5083 135.7220
L25.3179 135.8172
" />
<path d="M25.3179 135.8172
L24.5560 135.8172
" />
<path d="M24.5560 135.8172
L24.5560 133.8172
" />
<path d="M24.5560 133.8172
L25.2226 133.8172
" />
<path d="M25.2226 133.8172
L25.4131 133.9125
" />
<path d="M25.4131 133.9125
L25.5083 134.0077
" />
<path d="M25.5083 134.0077
L25.6036 134.1982
" />
<path d="M25.6036 134.1982
L25.6036 134.3887
" />
<path d="M25.6036 134.3887
L25.5083 134.5791
" />
<path d="M25.5083 134.5791
L25.4131 134.6744
" />
<path d="M25.4131 134.6744
L25.2226 134.7696
" />
<path d="M25.2226 134.7696
L24.5560 134.7696
" />
<path d="M26.9369 133.8172
L27.3179 133.8172
" />
<path d="M27.3179 133.8172
L27.5083 133.9125
" />
<path d="M27.5083 133.9125
L27.6988 134.1030
" />
<path d="M27.6988 134.1030
L27.7940 134.4839
" />
<path d="M27.7940 134.4839
L27.7940 135.1506
" />
<path d="M27.7940 135.1506
L27.6988 135.5315
" />
<path d="M27.6988 135.5315
L27.5083 135.7220
" />
<path d="M27.5083 135.7220
L27.3179 135.8172
" />
<path d="M27.3179 135.8172
L26.9369 135.8172
" />
<path d="M26.9369 135.8172
L26.7464 135.7220
" />
<path d="M26.7464 135.7220
L26.5560 135.5315
" />
<path d="M26.5560 135.5315
L26.4607 135.1506
" />
<path d="M26.4607 135.1506
L26.4607 134.4839
" />
<path d="M26.4607 134.4839
L26.5560 134.1030
" />
<path d="M26.5560 134.1030
L26.7464 133.9125
" />
<path d="M26.7464 133.9125
L26.9369 133.8172
" />
<path d="M28.5560 135.2458
L29.5083 135.2458
" />
<path d="M28.3655 135.8172
L29.0321 133.8172
" />
<path d="M29.0321 133.8172
L29.6988 135.8172
" />
<path d="M31.5083 135.8172
L30.8417 134.8649
" />
<path d="M30.3655 135.8172
L30.3655 133.8172
" />
<path d="M30.3655 133.8172
L31.1274 133.8172
" />
<path d="M31.1274 133.8172
L31.3179 133.9125
" />
<path d="M31.3179 133.9125
L31.4131 134.0077
" />
<path d="M31.4131 134.0077
L31.5083 134.1982
" />
<path d="M31.5083 134.1982
L31.5083 134.4839
" />
<path d="M31.5083 134.4839
L31.4131 134.6744
" />
<path d="M31.4131 134.6744
L31.3179 134.7696
" />
<path d="M31.3179 134.7696
L31.1274 134.8649
" />
<path d="M31.1274 134.8649
L30.3655 134.8649
" />
<path d="M32.3655 135.8172
L32.3655 133.8172
" />
<path d="M32.3655 133.8172
L32.8417 133.8172
" />
<path d="M32.8417 133.8172
L33.1274 133.9125
" />
<path d="M33.1274 133.9125
L33.3179 134.1030
" />
<path d="M33.3179 134.1030
L33.4131 134.2934
" />
<path d="M33.4131 134.2934
L33.5083 134.6744
" />
<path d="M33.5083 134.6744
L33.5083 134.9601
" />
<path d="M33.5083 134.9601
L33.4131 135.3410
" />
<path d="M33.4131 135.3410
L33.3179 135.5315
" />
<path d="M33.3179 135.5315
L33.1274 135.7220
" />
<path d="M33.1274 135.7220
L32.8417 135.8172
" />
<path d="M32.8417 135.8172
L32.3655 135.8172
" />
<path d="M37.0321 135.6268
L36.9369 135.7220
" />
<path d="M36.9369 135.7220
L36.6512 135.8172
" />
<path d="M36.6512 135.8172
L36.4607 135.8172
" />
<path d="M36.4607 135.8172
L36.1750 135.7220
" />
<path d="M36.1750 135.7220
L35.9845 135.5315
" />
<path d="M35.9845 135.5315
L35.8893 135.3410
" />
<path d="M35.8893 135.3410
L35.7940 134.9601
" />
<path d="M35.7940 134.9601
L35.7940 134.6744
" />
<path d="M35.7940 134.6744
L35.8893 134.2934
" />
<path d="M35.8893 134.2934
L35.9845 134.1030
" />
<path d="M35.9845 134.1030
L36.1750 133.9125
" />
<path d="M36.1750 133.9125
L36.4607 133.8172
" />
<path d="M36.4607 133.8172
L36.6512 133.8172
" />
<path d="M36.6512 133.8172
L36.9369 133.9125
" />
<path d="M36.9369 133.9125
L37.0321 134.0077
" />
<path d="M38.2702 133.8172
L38.6512 133.8172
" />
<path d="M38.6512 133.8172
L38.8417 133.9125
" />
<path d="M38.8417 133.9125
L39.0321 134.1030
" />
<path d="M39.0321 134.1030
L39.1274 134.4839
" />
<path d="M39.1274 134.4839
L39.1274 135.1506
" />
<path d="M39.1274 135.1506
L39.0321 135.5315
" />
<path d="M39.0321 135.5315
L38.8417 135.7220
" />
<path d="M38.8417 135.7220
L38.6512 135.8172
" />
<path d="M38.6512 135.8172
L38.2702 135.8172
" />
<path d="M38.2702 135.8172
L38.0798 135.7220
" />
<path d="M38.0798 135.7220
L37.8893 135.5315
" />
<path d="M37.8893 135.5315
L37.7940 135.1506
" />
<path d="M37.7940 135.1506
L37.7940 134.4839
" />
<path d="M37.7940 134.4839
L37.8893 134.1030
" />
<path d="M37.8893 134.1030
L38.0798 133.9125
" />
<path d="M38.0798 133.9125
L38.2702 133.8172
" />
<path d="M39.9845 135.8172
L39.9845 133.8172
" />
<path d="M39.9845 133.8172
L41.1274 135.8172
" />
<path d="M41.1274 135.8172
L41.1274 133.8172
" />
<path d="M43.2226 135.6268
L43.1274 135.7220
" />
<path d="M43.1274 135.7220
L42.8417 135.8172
" />
<path d="M42.8417 135.8172
L42.6512 135.8172
" />
<path d="M42.6512 135.8172
L42.3655 135.7220
" />
<path d="M42.3655 135.7220
L42.1750 135.5315
" />
<path d="M42.1750 135.5315
L42.0798 135.3410
" />
<path d="M42.0798 135.3410
L41.9845 134.9601
" />
<path d="M41.9845 134.9601
L41.9845 134.6744
" />
<path d="M41.9845 134.6744
L42.0798 134.2934
" />
<path d="M42.0798 134.2934
L42.1750 134.1030
" />
<path d="M42.1750 134.1030
L42.3655 133.9125
" />
<path d="M42.3655 133.9125
L42.6512 133.8172
" />
<path d="M42.6512 133.8172
L42.8417 133.8172
" />
<path d="M42.8417 133.8172
L43.1274 133.9125
" />
<path d="M43.1274 133.9125
L43.2226 134.0077
" />
<path d="M44.0798 134.7696
L44.7464 134.7696
" />
<path d="M45.0321 135.8172
L44.0798 135.8172
" />
<path d="M44.0798 135.8172
L44.0798 133.8172
" />
<path d="M44.0798 133.8172
L45.0321 133.8172
" />
<path d="M45.8893 135.8172
L45.8893 133.8172
" />
<path d="M45.8893 133.8172
L46.6512 133.8172
" />
<path d="M46.6512 133.8172
L46.8417 133.9125
" />
<path d="M46.8417 133.9125
L46.9369 134.0077
" />
<path d="M46.9369 134.0077
L47.0321 134.1982
" />
<path d="M47.0321 134.1982
L47.0321 134.4839
" />
<path d="M47.0321 134.4839
L46.9369 134.6744
" />
<path d="M46.9369 134.6744
L46.8417 134.7696
" />
<path d="M46.8417 134.7696
L46.6512 134.8649
" />
<path d="M46.6512 134.8649
L45.8893 134.8649
" />
<path d="M47.6036 133.8172
L48.7464 133.8172
" />
<path d="M48.1750 135.8172
L48.1750 133.8172
" />
<path d="M50.9369 135.0553
L52.4607 135.0553
" />
<path d="M54.9369 135.8172
L54.9369 133.8172
" />
<path d="M54.9369 133.8172
L56.0798 135.8172
" />
<path d="M56.0798 135.8172
L56.0798 133.8172
" />
<path d="M57.4131 133.8172
L57.7940 133.8172
" />
<path d="M57.7940 133.8172
L57.9845 133.9125
" />
<path d="M57.9845 133.9125
L58.1750 134.1030
" />
<path d="M58.1750 134.1030
L58.2702 134.4839
" />
<path d="M58.2702 134.4839
L58.2702 135.1506
" />
<path d="M58.2702 135.1506
L58.1750 135.5315
" />
<path d="M58.1750 135.5315
L57.9845 135.7220
" />
<path d="M57.9845 135.7220
L57.7940 135.8172
" />
<path d="M57.7940 135.8172
L57.4131 135.8172
" />
<path d="M57.4131 135.8172
L57.2226 135.7220
" />
<path d="M57.2226 135.7220
L57.0321 135.5315
" />
<path d="M57.0321 135.5315
L56.9369 135.1506
" />
<path d="M56.9369 135.1506
L56.9369 134.4839
" />
<path d="M56.9369 134.4839
L57.0321 134.1030
" />
<path d="M57.0321 134.1030
L57.2226 133.9125
" />
<path d="M57.2226 133.9125
L57.4131 133.8172
" />
<path d="M58.8417 133.8172
L59.9845 133.8172
" />
<path d="M59.4131 135.8172
L59.4131 133.8172
" />
<path d="M62.8417 134.7696
L62.1750 134.7696
" />
<path d="M62.1750 135.8172
L62.1750 133.8172
" />
<path d="M62.1750 133.8172
L63.1274 133.8172
" />
<path d="M63.7941 135.2458
L64.7464 135.2458
" />
<path d="M63.6036 135.8172
L64.2702 133.8172
" />
<path d="M64.2702 133.8172
L64.9369 135.8172
" />
<path d="M66.2702 134.7696
L66.5560 134.8649
" />
<path d="M66.5560 134.8649
L66.6512 134.9601
" />
<path d="M66.6512 134.9601
L66.7464 135.1506
" />
<path d="M66.7464 135.1506
L66.7464 135.4363
" />
<path d="M66.7464 135.4363
L66.6512 135.6268
" />
<path d="M66.6512 135.6268
L66.5560 135.7220
" />
<path d="M66.5560 135.7220
L66.3655 135.8172
" />
<path d="M66.3655 135.8172
L65.6036 135.8172
" />
<path d="M65.6036 135.8172
L65.6036 133.8172
" />
<path d="M65.6036 133.8172
L66.2702 133.8172
" />
<path d="M66.2702 133.8172
L66.4607 133.9125
" />
<path d="M66.4607 133.9125
L66.5560 134.0077
" />
<path d="M66.5560 134.0077
L66.6512 134.1982
" />
<path d="M66.6512 134.1982
L66.6512 134.3887
" />
<path d="M66.6512 134.3887
L66.5560 134.5791
" />
<path d="M66.5560 134.5791
L66.4607 134.6744
" />
<path d="M66.4607 134.6744
L66.2702 134.7696
" />
<path d="M66.2702 134.7696
L65.6036 134.7696
" />
<path d="M68.7464 135.8172
L68.0798 134.8649
" />
<path d="M67.6036 135.8172
L67.6036 133.8172
" />
<path d="M67.6036 133.8172
L68.3655 133.8172
" />
<path d="M68.3655 133.8172
L68.5560 133.9125
" />
<path d="M68.5560 133.9125
L68.6512 134.0077
" />
<path d="M68.6512 134.0077
L68.7464 134.1982
" />
<path d="M68.7464 134.1982
L68.7464 134.4839
" />
<path d="M68.7464 134.4839
L68.6512 134.6744
" />
<path d="M68.6512 134.6744
L68.5560 134.7696
" />
<path d="M68.5560 134.7696
L68.3655 134.8649
" />
<path d="M68.3655 134.8649
L67.6036 134.8649
" />
<path d="M69.6036 135.8172
L69.6036 133.8172
" />
<path d="M71.6988 135.6268
L71.6036 135.7220
" />
<path d="M71.6036 135.7220
L71.3179 135.8172
" />
<path d="M71.3179 135.8172
L71.1274 135.8172
" />
<path d="M71.1274 135.8172
L70.8417 135.7220
" />
<path d="M70.8417 135.7220
L70.6512 135.5315
" />
<path d="M70.6512 135.5315
L70.5560 135.3410
" />
<path d="M70.5560 135.3410
L70.4607 134.9601
" />
<path d="M70.4607 134.9601
L70.4607 134.6744
" />
<path d="M70.4607 134.6744
L70.5560 134.2934
" />
<path d="M70.5560 134.2934
L70.6512 134.1030
" />
<path d="M70.6512 134.1030
L70.8417 133.9125
" />
<path d="M70.8417 133.9125
L71.1274 133.8172
" />
<path d="M71.1274 133.8172
L71.3179 133.8172
" />
<path d="M71.3179 133.8172
L71.6036 133.9125
" />
<path d="M71.6036 133.9125
L71.6988 134.0077
" />
<path d="M72.4607 135.2458
L73.4131 135.2458
" />
<path d="M72.2702 135.8172
L72.9369 133.8172
" />
<path d="M72.9369 133.8172
L73.6036 135.8172
" />
<path d="M73.9845 133.8172
L75.1274 133.8172
" />
<path d="M74.5560 135.8172
L74.5560 133.8172
" />
<path d="M75.7941 135.8172
L75.7941 133.8172
" />
<path d="M77.1274 133.8172
L77.5083 133.8172
" />
<path d="M77.5083 133.8172
L77.6988 133.9125
" />
<path d="M77.6988 133.9125
L77.8893 134.1030
" />
<path d="M77.8893 134.1030
L77.9845 134.4839
" />
<path d="M77.9845 134.4839
L77.9845 135.1506
" />
<path d="M77.9845 135.1506
L77.8893 135.5315
" />
<path d="M77.8893 135.5315
L77.6988 135.7220
" />
<path d="M77.6988 135.7220
L77.5083 135.8172
" />
<path d="M77.5083 135.8172
L77.1274 135.8172
" />
<path d="M77.1274 135.8172
L76.9369 135.7220
" />
<path d="M76.9369 135.7220
L76.7464 135.5315
" />
<path d="M76.7464 135.5315
L76.6512 135.1506
" />
<path d="M76.6512 135.1506
L76.6512 134.4839
" />
<path d="M76.6512 134.4839
L76.7464 134.1030
" />
<path d="M76.7464 134.1030
L76.9369 133.9125
" />
<path d="M76.9369 133.9125
L77.1274 133.8172
" />
<path d="M78.8417 135.8172
L78.8417 133.8172
" />
<path d="M78.8417 133.8172
L79.9845 135.8172
" />
<path d="M79.9845 135.8172
L79.9845 133.8172
" />
<path d="M82.4607 135.8172
L82.4607 133.8172
" />
<path d="M82.4607 133.8172
L82.9369 133.8172
" />
<path d="M82.9369 133.8172
L83.2226 133.9125
" />
<path d="M83.2226 133.9125
L83.4131 134.1030
" />
<path d="M83.4131 134.1030
L83.5083 134.2934
" />
<path d="M83.5083 134.2934
L83.6036 134.6744
" />
<path d="M83.6036 134.6744
L83.6036 134.9601
" />
<path d="M83.6036 134.9601
L83.5083 135.3410
" />
<path d="M83.5083 135.3410
L83.4131 135.5315
" />
<path d="M83.4131 135.5315
L83.2226 135.7220
" />
<path d="M83.2226 135.7220
L82.9369 135.8172
" />
<path d="M82.9369 135.8172
L82.4607 135.8172
" />
<path d="M84.3655 135.2458
L85.3179 135.2458
" />
<path d="M84.1750 135.8172
L84.8417 133.8172
" />
<path d="M84.8417 133.8172
L85.5083 135.8172
" />
<path d="M85.8893 133.8172
L87.0321 133.8172
" />
<path d="M86.4607 135.8172
L86.4607 133.8172
" />
<path d="M87.6036 135.2458
L88.5560 135.2458
" />
<path d="M87.4131 135.8172
L88.0798 133.8172
" />
<path d="M88.0798 133.8172
L88.7464 135.8172
" />
</g></g>
<g style="fill:#000000; fill-opacity:0.0; 
stroke:#000000; stroke-width:0.1800; stroke-opacity:1; 
stroke-linecap:round; stroke-linejoin:round;">
<text x="21.5560" y="14.7750"
textLength="12.1267" font-size="1.8667" lengthAdjust="spacingAndGlyphs"
text-anchor="middle" opacity="0">5G REDCAP</text>
<g class="stroked-text"><desc>5G REDCAP</desc>
<path d="M16.6226 13.3133
L15.9560 13.3133
" />
<path d="M15.9560 13.3133
L15.8893 13.9800
" />
<path d="M15.8893 13.9800
L15.9560 13.9133
" />
<path d="M15.9560 13.9133
L16.0893 13.8466
" />
<path d="M16.0893 13.8466
L16.4226 13.8466
" />
<path d="M16.4226 13.8466
L16.5560 13.9133
" />
<path d="M16.5560 13.9133
L16.6226 13.9800
" />
<path d="M16.6226 13.9800
L16.6893 14.1133
" />
<path d="M16.6893 14.1133
L16.6893 14.4466
" />
<path d="M16.6893 14.4466
L16.6226 14.5800
" />
<path d="M16.6226 14.5800
L16.5560 14.6466
" />
<path d="M16.5560 14.6466
L16.4226 14.7133
" />
<path d="M16.4226 14.7133
L16.0893 14.7133
" />
<path d="M16.0893 14.7133
L15.9560 14.6466
" />
<path d="M15.9560 14.6466
L15.8893 14.5800
" />
<path d="M18.0226 13.3800
L17.8893 13.3133
" />
<path d="M17.8893 13.3133
L17.6893 13.3133
" />
<path d="M17.6893 13.3133
L17.4893 13.3800
" />
<path d="M17.4893 13.3800
L17.3560 13.5133
" />
<path d="M17.3560 13.5133
L17.2893 13.6466
" />
<path d="M17.2893 13.6466
L17.2226 13.9133
" />
<path d="M17.2226 13.9133
L17.2226 14.1133
" />
<path d="M17.2226 14.1133
L17.2893 14.3800
" />
<path d="M17.2893 14.3800
L17.3560 14.5133
" />
<path d="M17.3560 14.5133
L17.4893 14.6466
" />
<path d="M17.4893 14.6466
L17.6893 14.7133
" />
<path d="M17.6893 14.7133
L17.8226 14.7133
" />
<path d="M17.8226 14.7133
L18.0226 14.6466
" />
<path d="M18.0226 14.6466
L18.0893 14.5800
" />
<path d="M18.0893 14.5800
L18.0893 14.1133
" />
<path d="M18.0893 14.1133
L17.8226 14.1133
" />
<path d="M20.5560 14.7133
L20.0893 14.0466
" />
<path d="M19.7560 14.7133
L19.7560 13.3133
" />
<path d="M19.7560 13.3133
L20.2893 13.3133
" />
<path d="M20.2893 13.3133
L20.4226 13.3800
" />
<path d="M20.4226 13.3800
L20.4893 13.4466
" />
<path d="M20.4893 13.4466
L20.5560 13.5800
" />
<path d="M20.5560 13.5800
L20.5560 13.7800
" />
<path d="M20.5560 13.7800
L20.4893 13.9133
" />
<path d="M20.4893 13.9133
L20.4226 13.9800
" />
<path d="M20.4226 13.9800
L20.2893 14.0466
" />
<path d="M20.2893 14.0466
L19.7560 14.0466
" />
<path d="M21.1560 13.9800
L21.6226 13.9800
" />
<path d="M21.8226 14.7133
L21.1560 14.7133
" />
<path d="M21.1560 14.7133
L21.1560 13.3133
" />
<path d="M21.1560 13.3133
L21.8226 13.3133
" />
<path d="M22.4226 14.7133
L22.4226 13.3133
" />
<path d="M22.4226 13.3133
L22.7560 13.3133
" />
<path d="M22.7560 13.3133
L22.9560 13.3800
" />
<path d="M22.9560 13.3800
L23.0893 13.5133
" />
<path d="M23.0893 13.5133
L23.1560 13.6466
" />
<path d="M23.1560 13.6466
L23.2226 13.9133
" />
<path d="M23.2226 13.9133
L23.2226 14.1133
" />
<path d="M23.2226 14.1133
L23.1560 14.3800
" />
<path d="M23.1560 14.3800
L23.0893 14.5133
" />
<path d="M23.0893 14.5133
L22.9560 14.6466
" />
<path d="M22.9560 14.6466
L22.7560 14.7133
" />
<path d="M22.7560 14.7133
L22.4226 14.7133
" />
<path d="M24.6226 14.5800
L24.5560 14.6466
" />
<path d="M24.5560 14.6466
L24.3560 14.7133
" />
<path d="M24.3560 14.7133
L24.2226 14.7133
" />
<path d="M24.2226 14.7133
L24.0226 14.6466
" />
<path d="M24.0226 14.6466
L23.8893 14.5133
" />
<path d="M23.8893 14.5133
L23.8226 14.3800
" />
<path d="M23.8226 14.3800
L23.7560 14.1133
" />
<path d="M23.7560 14.1133
L23.7560 13.9133
" />
<path d="M23.7560 13.9133
L23.8226 13.6466
" />
<path d="M23.8226 13.6466
L23.8893 13.5133
" />
<path d="M23.8893 13.5133
L24.0226 13.3800
" />
<path d="M24.0226 13.3800
L24.2226 13.3133
" />
<path d="M24.2226 13.3133
L24.3560 13.3133
" />
<path d="M24.3560 13.3133
L24.5560 13.3800
" />
<path d="M24.5560 13.3800
L24.6226 13.4466
" />
<path d="M25.1560 14.3133
L25.8226 14.3133
" />
<path d="M25.0226 14.7133
L25.4893 13.3133
" />
<path d="M25.4893 13.3133
L25.9560 14.7133
" />
<path d="M26.4226 14.7133
L26.4226 13.3133
" />
<path d="M26.4226 13.3133
L26.9560 13.3133
" />
<path d="M26.9560 13.3133
L27.0893 13.3800
" />
<path d="M27.0893 13.3800
L27.1560 13.4466
" />
<path d="M27.1560 13.4466
L27.2226 13.5800
" />
<path d="M27.2226 13.5800
L27.2226 13.7800
" />
<path d="M27.2226 13.7800
L27.1560 13.9133
" />
<path d="M27.1560 13.9133
L27.0893 13.9800
" />
<path d="M27.0893 13.9800
L26.9560 14.0466
" />
<path d="M26.9560 14.0466
L26.4226 14.0466
" />
</g><text x="37.5560" y="14.7750"
textLength="12.6600" font-size="1.8667" lengthAdjust="spacingAndGlyphs"
text-anchor="middle" opacity="0">SOC/LPDDR</text>
<g class="stroked-text"><desc>SOC/LPDDR</desc>
<path d="M31.6226 14.6466
L31.8226 14.7133
" />
<path d="M31.8226 14.7133
L32.1560 14.7133
" />
<path d="M32.1560 14.7133
L32.2893 14.6466
" />
<path d="M32.2893 14.6466
L32.3560 14.5800
" />
<path d="M32.3560 14.5800
L32.4226 14.4466
" />
<path d="M32.4226 14.4466
L32.4226 14.3133
" />
<path d="M32.4226 14.3133
L32.3560 14.1800
" />
<path d="M32.3560 14.1800
L32.2893 14.1133
" />
<path d="M32.2893 14.1133
L32.1560 14.0466
" />
<path d="M32.1560 14.0466
L31.8893 13.9800
" />
<path d="M31.8893 13.9800
L31.7560 13.9133
" />
<path d="M31.7560 13.9133
L31.6893 13.8466
" />
<path d="M31.6893 13.8466
L31.6226 13.7133
" />
<path d="M31.6226 13.7133
L31.6226 13.5800
" />
<path d="M31.6226 13.5800
L31.6893 13.4466
" />
<path d="M31.6893 13.4466
L31.7560 13.3800
" />
<path d="M31.7560 13.3800
L31.8893 13.3133
" />
<path d="M31.8893 13.3133
L32.2226 13.3133
" />
<path d="M32.2226 13.3133
L32.4226 13.3800
" />
<path d="M33.2893 13.3133
L33.5560 13.3133
" />
<path d="M33.5560 13.3133
L33.6893 13.3800
" />
<path d="M33.6893 13.3800
L33.8226 13.5133
" />
<path d="M33.8226 13.5133
L33.8893 13.7800
" />
<path d="M33.8893 13.7800
L33.8893 14.2466
" />
<path d="M33.8893 14.2466
L33.8226 14.5133
" />
<path d="M33.8226 14.5133
L33.6893 14.6466
" />
<path d="M33.6893 14.6466
L33.5560 14.7133
" />
<path d="M33.5560 14.7133
L33.2893 14.7133
" />
<path d="M33.2893 14.7133
L33.1560 14.6466
" />
<path d="M33.1560 14.6466
L33.0226 14.5133
" />
<path d="M33.0226 14.5133
L32.9560 14.2466
" />
<path d="M32.9560 14.2466
L32.9560 13.7800
" />
<path d="M32.9560 13.7800
L33.0226 13.5133
" />
<path d="M33.0226 13.5133
L33.1560 13.3800
" />
<path d="M33.1560 13.3800
L33.2893 13.3133
" />
<path d="M35.2893 14.5800
L35.2226 14.6466
" />
<path d="M35.2226 14.6466
L35.0226 14.7133
" />
<path d="M35.0226 14.7133
L34.8893 14.7133
" />
<path d="M34.8893 14.7133
L34.6893 14.6466
" />
<path d="M34.6893 14.6466
L34.5560 14.5133
" />
<path d="M34.5560 14.5133
L34.4893 14.3800
" />
<path d="M34.4893 14.3800
L34.4226 14.1133
" />
<path d="M34.4226 14.1133
L34.4226 13.9133
" />
<path d="M34.4226 13.9133
L34.4893 13.6466
" />
<path d="M34.4893 13.6466
L34.5560 13.5133
" />
<path d="M34.5560 13.5133
L34.6893 13.3800
" />
<path d="M34.6893 13.3800
L34.8893 13.3133
" />
<path d="M34.8893 13.3133
L35.0226 13.3133
" />
<path d="M35.0226 13.3133
L35.2226 13.3800
" />
<path d="M35.2226 13.3800
L35.2893 13.4466
" />
<path d="M36.8893 13.2466
L35.6893 15.0466
" />
<path d="M38.0226 14.7133
L37.3560 14.7133
" />
<path d="M37.3560 14.7133
L37.3560 13.3133
" />
<path d="M38.4893 14.7133
L38.4893 13.3133
" />
<path d="M38.4893 13.3133
L39.0226 13.3133
" />
<path d="M39.0226 13.3133
L39.1560 13.3800
" />
<path d="M39.1560 13.3800
L39.2226 13.4466
" />
<path d="M39.2226 13.4466
L39.2893 13.5800
" />
<path d="M39.2893 13.5800
L39.2893 13.7800
" />
<path d="M39.2893 13.7800
L39.2226 13.9133
" />
<path d="M39.2226 13.9133
L39.1560 13.9800
" />
<path d="M39.1560 13.9800
L39.0226 14.0466
" />
<path d="M39.0226 14.0466
L38.4893 14.0466
" />
<path d="M39.8893 14.7133
L39.8893 13.3133
" />
<path d="M39.8893 13.3133
L40.2226 13.3133
" />
<path d="M40.2226 13.3133
L40.4226 13.3800
" />
<path d="M40.4226 13.3800
L40.5560 13.5133
" />
<path d="M40.5560 13.5133
L40.6226 13.6466
" />
<path d="M40.6226 13.6466
L40.6893 13.9133
" />
<path d="M40.6893 13.9133
L40.6893 14.1133
" />
<path d="M40.6893 14.1133
L40.6226 14.3800
" />
<path d="M40.6226 14.3800
L40.5560 14.5133
" />
<path d="M40.5560 14.5133
L40.4226 14.6466
" />
<path d="M40.4226 14.6466
L40.2226 14.7133
" />
<path d="M40.2226 14.7133
L39.8893 14.7133
" />
<path d="M41.2893 14.7133
L41.2893 13.3133
" />
<path d="M41.2893 13.3133
L41.6226 13.3133
" />
<path d="M41.6226 13.3133
L41.8226 13.3800
" />
<path d="M41.8226 13.3800
L41.9560 13.5133
" />
<path d="M41.9560 13.5133
L42.0226 13.6466
" />
<path d="M42.0226 13.6466
L42.0893 13.9133
" />
<path d="M42.0893 13.9133
L42.0893 14.1133
" />
<path d="M42.0893 14.1133
L42.0226 14.3800
" />
<path d="M42.0226 14.3800
L41.9560 14.5133
" />
<path d="M41.9560 14.5133
L41.8226 14.6466
" />
<path d="M41.8226 14.6466
L41.6226 14.7133
" />
<path d="M41.6226 14.7133
L41.2893 14.7133
" />
<path d="M43.4893 14.7133
L43.0226 14.0466
" />
<path d="M42.6893 14.7133
L42.6893 13.3133
" />
<path d="M42.6893 13.3133
L43.2226 13.3133
" />
<path d="M43.2226 13.3133
L43.3560 13.3800
" />
<path d="M43.3560 13.3800
L43.4226 13.4466
" />
<path d="M43.4226 13.4466
L43.4893 13.5800
" />
<path d="M43.4893 13.5800
L43.4893 13.7800
" />
<path d="M43.4893 13.7800
L43.4226 13.9133
" />
<path d="M43.4226 13.9133
L43.3560 13.9800
" />
<path d="M43.3560 13.9800
L43.2226 14.0466
" />
<path d="M43.2226 14.0466
L42.6893 14.0466
" />
</g><text x="51.5560" y="14.7750"
textLength="5.3267" font-size="1.8667" lengthAdjust="spacingAndGlyphs"
text-anchor="middle" opacity="0">PMIC</text>
<g class="stroked-text"><desc>PMIC</desc>
<path d="M49.3560 14.7133
L49.3560 13.3133
" />
<path d="M49.3560 13.3133
L49.8893 13.3133
" />
<path d="M49.8893 13.3133
L50.0226 13.3800
" />
<path d="M50.0226 13.3800
L50.0893 13.4466
" />
<path d="M50.0893 13.4466
L50.1560 13.5800
" />
<path d="M50.1560 13.5800
L50.1560 13.7800
" />
<path d="M50.1560 13.7800
L50.0893 13.9133
" />
<path d="M50.0893 13.9133
L50.0226 13.9800
" />
<path d="M50.0226 13.9800
L49.8893 14.0466
" />
<path d="M49.8893 14.0466
L49.3560 14.0466
" />
<path d="M50.7560 14.7133
L50.7560 13.3133
" />
<path d="M50.7560 13.3133
L51.2226 14.3133
" />
<path d="M51.2226 14.3133
L51.6893 13.3133
" />
<path d="M51.6893 13.3133
L51.6893 14.7133
" />
<path d="M52.3560 14.7133
L52.3560 13.3133
" />
<path d="M53.8226 14.5800
L53.7560 14.6466
" />
<path d="M53.7560 14.6466
L53.5560 14.7133
" />
<path d="M53.5560 14.7133
L53.4226 14.7133
" />
<path d="M53.4226 14.7133
L53.2226 14.6466
" />
<path d="M53.2226 14.6466
L53.0893 14.5133
" />
<path d="M53.0893 14.5133
L53.0226 14.3800
" />
<path d="M53.0226 14.3800
L52.9560 14.1133
" />
<path d="M52.9560 14.1133
L52.9560 13.9133
" />
<path d="M52.9560 13.9133
L53.0226 13.6466
" />
<path d="M53.0226 13.6466
L53.0893 13.5133
" />
<path d="M53.0893 13.5133
L53.2226 13.3800
" />
<path d="M53.2226 13.3800
L53.4226 13.3133
" />
<path d="M53.4226 13.3133
L53.5560 13.3133
" />
<path d="M53.5560 13.3133
L53.7560 13.3800
" />
<path d="M53.7560 13.3800
L53.8226 13.4466
" />
</g></g>
<g style="fill:#000000; fill-opacity:0.0; 
stroke:#000000; stroke-width:0.1500; stroke-opacity:1; 
stroke-linecap:round; stroke-linejoin:round;">
<text x="64.5560" y="17.6250"
textLength="12.2776" font-size="1.4667" lengthAdjust="spacingAndGlyphs"
text-anchor="middle" opacity="0">CAM/DISP FFC</text>
<g class="stroked-text"><desc>CAM/DISP FFC</desc>
<path d="M59.4226 17.4713
L59.3702 17.5237
" />
<path d="M59.3702 17.5237
L59.2131 17.5761
" />
<path d="M59.2131 17.5761
L59.1083 17.5761
" />
<path d="M59.1083 17.5761
L58.9512 17.5237
" />
<path d="M58.9512 17.5237
L58.8464 17.4189
" />
<path d="M58.8464 17.4189
L58.7940 17.3142
" />
<path d="M58.7940 17.3142
L58.7417 17.1047
" />
<path d="M58.7417 17.1047
L58.7417 16.9475
" />
<path d="M58.7417 16.9475
L58.7940 16.7380
" />
<path d="M58.7940 16.7380
L58.8464 16.6332
" />
<path d="M58.8464 16.6332
L58.9512 16.5285
" />
<path d="M58.9512 16.5285
L59.1083 16.4761
" />
<path d="M59.1083 16.4761
L59.2131 16.4761
" />
<path d="M59.2131 16.4761
L59.3702 16.5285
" />
<path d="M59.3702 16.5285
L59.4226 16.5808
" />
<path d="M59.8417 17.2618
L60.3655 17.2618
" />
<path d="M59.7369 17.5761
L60.1036 16.4761
" />
<path d="M60.1036 16.4761
L60.4702 17.5761
" />
<path d="M60.8369 17.5761
L60.8369 16.4761
" />
<path d="M60.8369 16.4761
L61.2036 17.2618
" />
<path d="M61.2036 17.2618
L61.5702 16.4761
" />
<path d="M61.5702 16.4761
L61.5702 17.5761
" />
<path d="M62.8798 16.4237
L61.9369 17.8380
" />
<path d="M63.2464 17.5761
L63.2464 16.4761
" />
<path d="M63.2464 16.4761
L63.5083 16.4761
" />
<path d="M63.5083 16.4761
L63.6655 16.5285
" />
<path d="M63.6655 16.5285
L63.7702 16.6332
" />
<path d="M63.7702 16.6332
L63.8226 16.7380
" />
<path d="M63.8226 16.7380
L63.8750 16.9475
" />
<path d="M63.8750 16.9475
L63.8750 17.1047
" />
<path d="M63.8750 17.1047
L63.8226 17.3142
" />
<path d="M63.8226 17.3142
L63.7702 17.4189
" />
<path d="M63.7702 17.4189
L63.6655 17.5237
" />
<path d="M63.6655 17.5237
L63.5083 17.5761
" />
<path d="M63.5083 17.5761
L63.2464 17.5761
" />
<path d="M64.3464 17.5761
L64.3464 16.4761
" />
<path d="M64.8179 17.5237
L64.9750 17.5761
" />
<path d="M64.9750 17.5761
L65.2369 17.5761
" />
<path d="M65.2369 17.5761
L65.3417 17.5237
" />
<path d="M65.3417 17.5237
L65.3941 17.4713
" />
<path d="M65.3941 17.4713
L65.4464 17.3666
" />
<path d="M65.4464 17.3666
L65.4464 17.2618
" />
<path d="M65.4464 17.2618
L65.3941 17.1570
" />
<path d="M65.3941 17.1570
L65.3417 17.1047
" />
<path d="M65.3417 17.1047
L65.2369 17.0523
" />
<path d="M65.2369 17.0523
L65.0274 16.9999
" />
<path d="M65.0274 16.9999
L64.9226 16.9475
" />
<path d="M64.9226 16.9475
L64.8702 16.8951
" />
<path d="M64.8702 16.8951
L64.8179 16.7904
" />
<path d="M64.8179 16.7904
L64.8179 16.6856
" />
<path d="M64.8179 16.6856
L64.8702 16.5808
" />
<path d="M64.8702 16.5808
L64.9226 16.5285
" />
<path d="M64.9226 16.5285
L65.0274 16.4761
" />
<path d="M65.0274 16.4761
L65.2893 16.4761
" />
<path d="M65.2893 16.4761
L65.4464 16.5285
" />
<path d="M65.9179 17.5761
L65.9179 16.4761
" />
<path d="M65.9179 16.4761
L66.3369 16.4761
" />
<path d="M66.3369 16.4761
L66.4417 16.5285
" />
<path d="M66.4417 16.5285
L66.4941 16.5808
" />
<path d="M66.4941 16.5808
L66.5464 16.6856
" />
<path d="M66.5464 16.6856
L66.5464 16.8427
" />
<path d="M66.5464 16.8427
L66.4941 16.9475
" />
<path d="M66.4941 16.9475
L66.4417 16.9999
" />
<path d="M66.4417 16.9999
L66.3369 17.0523
" />
<path d="M66.3369 17.0523
L65.9179 17.0523
" />
<path d="M68.2226 16.9999
L67.8560 16.9999
" />
<path d="M67.8560 17.5761
L67.8560 16.4761
" />
<path d="M67.8560 16.4761
L68.3798 16.4761
" />
<path d="M69.1655 16.9999
L68.7988 16.9999
" />
<path d="M68.7988 17.5761
L68.7988 16.4761
" />
<path d="M68.7988 16.4761
L69.3226 16.4761
" />
<path d="M70.3702 17.4713
L70.3179 17.5237
" />
<path d="M70.3179 17.5237
L70.1607 17.5761
" />
<path d="M70.1607 17.5761
L70.0560 17.5761
" />
<path d="M70.0560 17.5761
L69.8988 17.5237
" />
<path d="M69.8988 17.5237
L69.7940 17.4189
" />
<path d="M69.7940 17.4189
L69.7417 17.3142
" />
<path d="M69.7417 17.3142
L69.6893 17.1047
" />
<path d="M69.6893 17.1047
L69.6893 16.9475
" />
<path d="M69.6893 16.9475
L69.7417 16.7380
" />
<path d="M69.7417 16.7380
L69.7940 16.6332
" />
<path d="M69.7940 16.6332
L69.8988 16.5285
" />
<path d="M69.8988 16.5285
L70.0560 16.4761
" />
<path d="M70.0560 16.4761
L70.1607 16.4761
" />
<path d="M70.1607 16.4761
L70.3179 16.5285
" />
<path d="M70.3179 16.5285
L70.3702 16.5808
" />
</g></g>
<g style="fill:#000000; fill-opacity:0.0; 
stroke:#000000; stroke-width:0.1800; stroke-opacity:1; 
stroke-linecap:round; stroke-linejoin:round;">
<text x="44.5560" y="128.7750"
textLength="7.5933" font-size="1.8667" lengthAdjust="spacingAndGlyphs"
text-anchor="middle" opacity="0">USB-C</text>
<g class="stroked-text"><desc>USB-C</desc>
<path d="M41.2226 127.3133
L41.2226 128.4466
" />
<path d="M41.2226 128.4466
L41.2893 128.5800
" />
<path d="M41.2893 128.5800
L41.3560 128.6466
" />
<path d="M41.3560 128.6466
L41.4893 128.7133
" />
<path d="M41.4893 128.7133
L41.7560 128.7133
" />
<path d="M41.7560 128.7133
L41.8893 128.6466
" />
<path d="M41.8893 128.6466
L41.9560 128.5800
" />
<path d="M41.9560 128.5800
L42.0226 128.4466
" />
<path d="M42.0226 128.4466
L42.0226 127.3133
" />
<path d="M42.6226 128.6466
L42.8226 128.7133
" />
<path d="M42.8226 128.7133
L43.1560 128.7133
" />
<path d="M43.1560 128.7133
L43.2893 128.6466
" />
<path d="M43.2893 128.6466
L43.3560 128.5800
" />
<path d="M43.3560 128.5800
L43.4226 128.4466
" />
<path d="M43.4226 128.4466
L43.4226 128.3133
" />
<path d="M43.4226 128.3133
L43.3560 128.1800
" />
<path d="M43.3560 128.1800
L43.2893 128.1133
" />
<path d="M43.2893 128.1133
L43.1560 128.0466
" />
<path d="M43.1560 128.0466
L42.8893 127.9800
" />
<path d="M42.8893 127.9800
L42.7560 127.9133
" />
<path d="M42.7560 127.9133
L42.6893 127.8466
" />
<path d="M42.6893 127.8466
L42.6226 127.7133
" />
<path d="M42.6226 127.7133
L42.6226 127.5800
" />
<path d="M42.6226 127.5800
L42.6893 127.4466
" />
<path d="M42.6893 127.4466
L42.7560 127.3800
" />
<path d="M42.7560 127.3800
L42.8893 127.3133
" />
<path d="M42.8893 127.3133
L43.2226 127.3133
" />
<path d="M43.2226 127.3133
L43.4226 127.3800
" />
<path d="M44.4893 127.9800
L44.6893 128.0466
" />
<path d="M44.6893 128.0466
L44.7560 128.1133
" />
<path d="M44.7560 128.1133
L44.8226 128.2466
" />
<path d="M44.8226 128.2466
L44.8226 128.4466
" />
<path d="M44.8226 128.4466
L44.7560 128.5800
" />
<path d="M44.7560 128.5800
L44.6893 128.6466
" />
<path d="M44.6893 128.6466
L44.5560 128.7133
" />
<path d="M44.5560 128.7133
L44.0226 128.7133
" />
<path d="M44.0226 128.7133
L44.0226 127.3133
" />
<path d="M44.0226 127.3133
L44.4893 127.3133
" />
<path d="M44.4893 127.3133
L44.6226 127.3800
" />
<path d="M44.6226 127.3800
L44.6893 127.4466
" />
<path d="M44.6893 127.4466
L44.7560 127.5800
" />
<path d="M44.7560 127.5800
L44.7560 127.7133
" />
<path d="M44.7560 127.7133
L44.6893 127.8466
" />
<path d="M44.6893 127.8466
L44.6226 127.9133
" />
<path d="M44.6226 127.9133
L44.4893 127.9800
" />
<path d="M44.4893 127.9800
L44.0226 127.9800
" />
<path d="M45.4226 128.1800
L46.4893 128.1800
" />
<path d="M47.9560 128.5800
L47.8893 128.6466
" />
<path d="M47.8893 128.6466
L47.6893 128.7133
" />
<path d="M47.6893 128.7133
L47.5560 128.7133
" />
<path d="M47.5560 128.7133
L47.3560 128.6466
" />
<path d="M47.3560 128.6466
L47.2226 128.5133
" />
<path d="M47.2226 128.5133
L47.1560 128.3800
" />
<path d="M47.1560 128.3800
L47.0893 128.1133
" />
<path d="M47.0893 128.1133
L47.0893 127.9133
" />
<path d="M47.0893 127.9133
L47.1560 127.6466
" />
<path d="M47.1560 127.6466
L47.2226 127.5133
" />
<path d="M47.2226 127.5133
L47.3560 127.3800
" />
<path d="M47.3560 127.3800
L47.5560 127.3133
" />
<path d="M47.5560 127.3133
L47.6893 127.3133
" />
<path d="M47.6893 127.3133
L47.8893 127.3800
" />
<path d="M47.8893 127.3800
L47.9560 127.4466
" />
</g></g>
<g style="fill:#000000; fill-opacity:0.0; 
stroke:#000000; stroke-width:0.1400; stroke-opacity:1; 
stroke-linecap:round; stroke-linejoin:round;">
<text x="20.0560" y="54.5750"
textLength="4.1724" font-size="1.3333" lengthAdjust="spacingAndGlyphs"
text-anchor="middle" opacity="0">VOL+</text>
<g class="stroked-text"><desc>VOL+</desc>
<path d="M18.1750 53.5303
L18.5083 54.5303
" />
<path d="M18.5083 54.5303
L18.8417 53.5303
" />
<path d="M19.3655 53.5303
L19.5560 53.5303
" />
<path d="M19.5560 53.5303
L19.6512 53.5780
" />
<path d="M19.6512 53.5780
L19.7464 53.6732
" />
<path d="M19.7464 53.6732
L19.7940 53.8637
" />
<path d="M19.7940 53.8637
L19.7940 54.1970
" />
<path d="M19.7940 54.1970
L19.7464 54.3875
" />
<path d="M19.7464 54.3875
L19.6512 54.4827
" />
<path d="M19.6512 54.4827
L19.5560 54.5303
" />
<path d="M19.5560 54.5303
L19.3655 54.5303
" />
<path d="M19.3655 54.5303
L19.2702 54.4827
" />
<path d="M19.2702 54.4827
L19.1750 54.3875
" />
<path d="M19.1750 54.3875
L19.1274 54.1970
" />
<path d="M19.1274 54.1970
L19.1274 53.8637
" />
<path d="M19.1274 53.8637
L19.1750 53.6732
" />
<path d="M19.1750 53.6732
L19.2702 53.5780
" />
<path d="M19.2702 53.5780
L19.3655 53.5303
" />
<path d="M20.6988 54.5303
L20.2226 54.5303
" />
<path d="M20.2226 54.5303
L20.2226 53.5303
" />
<path d="M21.0321 54.1494
L21.7941 54.1494
" />
<path d="M21.4131 54.5303
L21.4131 53.7684
" />
</g><text x="20.0560" y="63.5750"
textLength="4.1724" font-size="1.3333" lengthAdjust="spacingAndGlyphs"
text-anchor="middle" opacity="0">VOL-</text>
<g class="stroked-text"><desc>VOL-</desc>
<path d="M18.1750 62.5303
L18.5083 63.5303
" />
<path d="M18.5083 63.5303
L18.8417 62.5303
" />
<path d="M19.3655 62.5303
L19.5560 62.5303
" />
<path d="M19.5560 62.5303
L19.6512 62.5780
" />
<path d="M19.6512 62.5780
L19.7464 62.6732
" />
<path d="M19.7464 62.6732
L19.7940 62.8637
" />
<path d="M19.7940 62.8637
L19.7940 63.1970
" />
<path d="M19.7940 63.1970
L19.7464 63.3875
" />
<path d="M19.7464 63.3875
L19.6512 63.4827
" />
<path d="M19.6512 63.4827
L19.5560 63.5303
" />
<path d="M19.5560 63.5303
L19.3655 63.5303
" />
<path d="M19.3655 63.5303
L19.2702 63.4827
" />
<path d="M19.2702 63.4827
L19.1750 63.3875
" />
<path d="M19.1750 63.3875
L19.1274 63.1970
" />
<path d="M19.1274 63.1970
L19.1274 62.8637
" />
<path d="M19.1274 62.8637
L19.1750 62.6732
" />
<path d="M19.1750 62.6732
L19.2702 62.5780
" />
<path d="M19.2702 62.5780
L19.3655 62.5303
" />
<path d="M20.6988 63.5303
L20.2226 63.5303
" />
<path d="M20.2226 63.5303
L20.2226 62.5303
" />
<path d="M21.0321 63.1494
L21.7941 63.1494
" />
</g><text x="20.0560" y="73.5750"
textLength="3.3629" font-size="1.3333" lengthAdjust="spacingAndGlyphs"
text-anchor="middle" opacity="0">PWR</text>
<g class="stroked-text"><desc>PWR</desc>
<path d="M18.7226 73.5303
L18.7226 72.5303
" />
<path d="M18.7226 72.5303
L19.1036 72.5303
" />
<path d="M19.1036 72.5303
L19.1988 72.5780
" />
<path d="M19.1988 72.5780
L19.2464 72.6256
" />
<path d="M19.2464 72.6256
L19.2940 72.7208
" />
<path d="M19.2940 72.7208
L19.2940 72.8637
" />
<path d="M19.2940 72.8637
L19.2464 72.9589
" />
<path d="M19.2464 72.9589
L19.1988 73.0065
" />
<path d="M19.1988 73.0065
L19.1036 73.0541
" />
<path d="M19.1036 73.0541
L18.7226 73.0541
" />
<path d="M19.6274 72.5303
L19.8655 73.5303
" />
<path d="M19.8655 73.5303
L20.0560 72.8161
" />
<path d="M20.0560 72.8161
L20.2464 73.5303
" />
<path d="M20.2464 73.5303
L20.4845 72.5303
" />
<path d="M21.4369 73.5303
L21.1036 73.0541
" />
<path d="M20.8655 73.5303
L20.8655 72.5303
" />
<path d="M20.8655 72.5303
L21.2464 72.5303
" />
<path d="M21.2464 72.5303
L21.3417 72.5780
" />
<path d="M21.3417 72.5780
L21.3893 72.6256
" />
<path d="M21.3893 72.6256
L21.4369 72.7208
" />
<path d="M21.4369 72.7208
L21.4369 72.8637
" />
<path d="M21.4369 72.8637
L21.3893 72.9589
" />
<path d="M21.3893 72.9589
L21.3417 73.0065
" />
<path d="M21.3417 73.0065
L21.2464 73.0541
" />
<path d="M21.2464 73.0541
L20.8655 73.0541
" />
</g><g >
</g>
<g >
</g>
<g >
</g>
</g>
<g style="fill:#FFFFFF; fill-opacity:0.0; 
stroke:#FFFFFF; stroke-width:0.1400; stroke-opacity:1; 
stroke-linecap:round; stroke-linejoin:round;">
</g>
<g style="fill:#000000; fill-opacity:0.0; 
stroke:#000000; stroke-width:0.1400; stroke-opacity:1; 
stroke-linecap:round; stroke-linejoin:round;">
</g>
<g style="fill:#000000; fill-opacity:0.0; 
stroke:#000000; stroke-width:0.1500; stroke-opacity:1; 
stroke-linecap:round; stroke-linejoin:round;">
<path style="fill:#000000; fill-opacity:0.0; 
stroke:#000000; stroke-width:0.1500; stroke-opacity:1; 
stroke-linecap:round; stroke-linejoin:round;fill:none"
d="M 16.5560,8.0750
29.5560,8.0750
29.5560,27.0750
16.5560,27.0750
Z" /> 
<path style="fill:#000000; fill-opacity:0.0; 
stroke:#000000; stroke-width:0.1500; stroke-opacity:1; 
stroke-linecap:round; stroke-linejoin:round;fill:none"
d="M 32.5560,8.0750
46.5560,8.0750
46.5560,22.0750
32.5560,22.0750
Z" /> 
<path style="fill:#000000; fill-opacity:0.0; 
stroke:#000000; stroke-width:0.1500; stroke-opacity:1; 
stroke-linecap:round; stroke-linejoin:round;fill:none"
d="M 48.5560,8.0750
56.5560,8.0750
56.5560,17.0750
48.5560,17.0750
Z" /> 
<path style="fill:#000000; fill-opacity:0.0; 
stroke:#000000; stroke-width:0.1500; stroke-opacity:1; 
stroke-linecap:round; stroke-linejoin:round;fill:none"
d="M 59.5560,8.0750
74.5560,8.0750
74.5560,32.0750
59.5560,32.0750
Z" /> 
<path style="fill:#000000; fill-opacity:0.0; 
stroke:#000000; stroke-width:0.1500; stroke-opacity:1; 
stroke-linecap:round; stroke-linejoin:round;fill:none"
d="M 45.5560,33.0750
62.5560,33.0750
62.5560,42.0750
45.5560,42.0750
Z" /> 
<path style="fill:#000000; fill-opacity:0.0; 
stroke:#000000; stroke-width:0.1500; stroke-opacity:1; 
stroke-linecap:round; stroke-linejoin:round;fill:none"
d="M 16.5560,50.0750
23.5560,50.0750
23.5560,56.0750
16.5560,56.0750
Z" /> 
<path style="fill:#000000; fill-opacity:0.0; 
stroke:#000000; stroke-width:0.1500; stroke-opacity:1; 
stroke-linecap:round; stroke-linejoin:round;fill:none"
d="M 16.5560,59.0750
23.5560,59.0750
23.5560,65.0750
16.5560,65.0750
Z" /> 
<path style="fill:#000000; fill-opacity:0.0; 
stroke:#000000; stroke-width:0.1500; stroke-opacity:1; 
stroke-linecap:round; stroke-linejoin:round;fill:none"
d="M 16.5560,68.0750
23.5560,68.0750
23.5560,76.0750
16.5560,76.0750
Z" /> 
<path style="fill:#000000; fill-opacity:0.0; 
stroke:#000000; stroke-width:0.1500; stroke-opacity:1; 
stroke-linecap:round; stroke-linejoin:round;fill:none"
d="M 16.5560,80.0750
23.5560,80.0750
23.5560,96.0750
16.5560,96.0750
Z" /> 
<path style="fill:#000000; fill-opacity:0.0; 
stroke:#000000; stroke-width:0.1500; stroke-opacity:1; 
stroke-linecap:round; stroke-linejoin:round;fill:none"
d="M 17.5560,104.0750
28.5560,104.0750
28.5560,113.0750
17.5560,113.0750
Z" /> 
<path style="fill:#000000; fill-opacity:0.0; 
stroke:#000000; stroke-width:0.1500; stroke-opacity:1; 
stroke-linecap:round; stroke-linejoin:round;fill:none"
d="M 30.5560,104.0750
43.5560,104.0750
43.5560,114.0750
30.5560,114.0750
Z" /> 
<path style="fill:#000000; fill-opacity:0.0; 
stroke:#000000; stroke-width:0.1500; stroke-opacity:1; 
stroke-linecap:round; stroke-linejoin:round;fill:none"
d="M 47.5560,104.0750
58.5560,104.0750
58.5560,113.0750
47.5560,113.0750
Z" /> 
<path style="fill:#000000; fill-opacity:0.0; 
stroke:#000000; stroke-width:0.1500; stroke-opacity:1; 
stroke-linecap:round; stroke-linejoin:round;fill:none"
d="M 61.5560,104.0750
74.5560,104.0750
74.5560,114.0750
61.5560,114.0750
Z" /> 
<path style="fill:#000000; fill-opacity:0.0; 
stroke:#000000; stroke-width:0.1500; stroke-opacity:1; 
stroke-linecap:round; stroke-linejoin:round;fill:none"
d="M 38.5560,124.0750
54.5560,124.0750
54.5560,130.0750
38.5560,130.0750
Z" /> 
<g >
</g>
<g >
</g>
<g >
</g>
</g>
<g style="fill:#000000; fill-opacity:0.0; 
stroke:#000000; stroke-width:0.1500; stroke-opacity:1; 
stroke-linecap:round; stroke-linejoin:round;">
<path d="M26.5560 48.0750
L28.2060 48.0750
" />
<path d="M28.8060 48.0750
L30.4560 48.0750
" />
<path d="M31.0560 48.0750
L32.7060 48.0750
" />
<path d="M33.3060 48.0750
L34.9560 48.0750
" />
<path d="M35.5560 48.0750
L37.2060 48.0750
" />
<path d="M37.8060 48.0750
L39.4560 48.0750
" />
<path d="M40.0560 48.0750
L41.7060 48.0750
" />
<path d="M42.3060 48.0750
L43.9560 48.0750
" />
<path d="M44.5560 48.0750
L46.2060 48.0750
" />
<path d="M46.8060 48.0750
L48.4560 48.0750
" />
<path d="M49.0560 48.0750
L50.7060 48.0750
" />
<path d="M51.3060 48.0750
L52.9560 48.0750
" />
<path d="M53.5560 48.0750
L55.2060 48.0750
" />
<path d="M55.8060 48.0750
L57.4560 48.0750
" />
<path d="M58.0560 48.0750
L59.7060 48.0750
" />
<path d="M60.3060 48.0750
L61.9560 48.0750
" />
<path d="M62.5560 48.0750
L64.2060 48.0750
" />
<path d="M64.8060 48.0750
L66.4560 48.0750
" />
<path d="M67.0560 48.0750
L68.7060 48.0750
" />
<path d="M69.3060 48.0750
L70.9560 48.0750
" />
</g>
<g style="fill:#000000; fill-opacity:1.0000; 
stroke:#000000; stroke-width:0.0000; stroke-opacity:1; 
stroke-linecap:round; stroke-linejoin:round;">
<circle cx="71.5560" cy="48.0750" r="0.0750" /> 
</g>
<g style="fill:#000000; fill-opacity:1.0000; 
stroke:#000000; stroke-width:0.1500; stroke-opacity:1; 
stroke-linecap:round; stroke-linejoin:round;">
</g>
<g style="fill:#000000; fill-opacity:0.0; 
stroke:#000000; stroke-width:0.1500; stroke-opacity:1; 
stroke-linecap:round; stroke-linejoin:round;">
<path d="M71.5560 48.0750
L71.5560 49.7250
" />
<path d="M71.5560 50.3250
L71.5560 51.9750
" />
<path d="M71.5560 52.5750
L71.5560 54.2250
" />
<path d="M71.5560 54.8250
L71.5560 56.4750
" />
<path d="M71.5560 57.0750
L71.5560 58.7250
" />
<path d="M71.5560 59.3250
L71.5560 60.9750
" />
<path d="M71.5560 61.5750
L71.5560 63.2250
" />
<path d="M71.5560 63.8250
L71.5560 65.4750
" />
<path d="M71.5560 66.0750
L71.5560 67.7250
" />
<path d="M71.5560 68.3250
L71.5560 69.9750
" />
<path d="M71.5560 70.5750
L71.5560 72.2250
" />
<path d="M71.5560 72.8250
L71.5560 74.4750
" />
<path d="M71.5560 75.0750
L71.5560 76.7250
" />
<path d="M71.5560 77.3250
L71.5560 78.9750
" />
<path d="M71.5560 79.5750
L71.5560 81.2250
" />
<path d="M71.5560 81.8250
L71.5560 83.4750
" />
<path d="M71.5560 84.0750
L71.5560 85.7250
" />
<path d="M71.5560 86.3250
L71.5560 87.9750
" />
<path d="M71.5560 88.5750
L71.5560 90.2250
" />
<path d="M71.5560 90.8250
L71.5560 92.4750
" />
<path d="M71.5560 93.0750
L71.5560 94.7250
" />
<path d="M71.5560 95.3250
L71.5560 96.9750
" />
<path d="M71.5560 97.5750
L71.5560 99.2250
" />
<path d="M71.5560 99.8250
L71.5560 101.4750
" />
<path d="M71.5560 102.0750
L71.5560 103.7250
" />
<path d="M71.5560 104.3250
L71.5560 105.9750
" />
<path d="M71.5560 106.5750
L71.5560 108.2250
" />
<path d="M71.5560 108.8250
L71.5560 110.4750
" />
<path d="M71.5560 111.0750
L71.5560 112.7250
" />
<path d="M71.5560 113.3250
L71.5560 114.9750
" />
<path d="M71.5560 115.5750
L71.5560 117.2250
" />
<path d="M71.5560 117.8250
L71.5560 119.4750
" />
</g>
<g style="fill:#000000; fill-opacity:1.0000; 
stroke:#000000; stroke-width:0.0000; stroke-opacity:1; 
stroke-linecap:round; stroke-linejoin:round;">
<circle cx="71.5560" cy="120.0750" r="0.0750" /> 
</g>
<g style="fill:#000000; fill-opacity:1.0000; 
stroke:#000000; stroke-width:0.1500; stroke-opacity:1; 
stroke-linecap:round; stroke-linejoin:round;">
</g>
<g style="fill:#000000; fill-opacity:0.0; 
stroke:#000000; stroke-width:0.1500; stroke-opacity:1; 
stroke-linecap:round; stroke-linejoin:round;">
<path d="M71.5560 120.0750
L69.9060 120.0750
" />
<path d="M69.3060 120.0750
L67.6560 120.0750
" />
<path d="M67.0560 120.0750
L65.4060 120.0750
" />
<path d="M64.8060 120.0750
L63.1560 120.0750
" />
<path d="M62.5560 120.0750
L60.9060 120.0750
" />
<path d="M60.3060 120.0750
L58.6560 120.0750
" />
<path d="M58.0560 120.0750
L56.4060 120.0750
" />
<path d="M55.8060 120.0750
L54.1560 120.0750
" />
<path d="M53.5560 120.0750
L51.9060 120.0750
" />
<path d="M51.3060 120.0750
L49.6560 120.0750
" />
<path d="M49.0560 120.0750
L47.4060 120.0750
" />
<path d="M46.8060 120.0750
L45.1560 120.0750
" />
<path d="M44.5560 120.0750
L42.9060 120.0750
" />
<path d="M42.3060 120.0750
L40.6560 120.0750
" />
<path d="M40.0560 120.0750
L38.4060 120.0750
" />
<path d="M37.8060 120.0750
L36.1560 120.0750
" />
<path d="M35.5560 120.0750
L33.9060 120.0750
" />
<path d="M33.3060 120.0750
L31.6560 120.0750
" />
<path d="M31.0560 120.0750
L29.4060 120.0750
" />
<path d="M28.8060 120.0750
L27.1560 120.0750
" />
</g>
<g style="fill:#000000; fill-opacity:1.0000; 
stroke:#000000; stroke-width:0.0000; stroke-opacity:1; 
stroke-linecap:round; stroke-linejoin:round;">
<circle cx="26.5560" cy="120.0750" r="0.0750" /> 
</g>
<g style="fill:#000000; fill-opacity:1.0000; 
stroke:#000000; stroke-width:0.1500; stroke-opacity:1; 
stroke-linecap:round; stroke-linejoin:round;">
</g>
<g style="fill:#000000; fill-opacity:0.0; 
stroke:#000000; stroke-width:0.1500; stroke-opacity:1; 
stroke-linecap:round; stroke-linejoin:round;">
<path d="M26.5560 120.0750
L26.5560 118.4250
" />
<path d="M26.5560 117.8250
L26.5560 116.1750
" />
<path d="M26.5560 115.5750
L26.5560 113.9250
" />
<path d="M26.5560 113.3250
L26.5560 111.6750
" />
<path d="M26.5560 111.0750
L26.5560 109.4250
" />
<path d="M26.5560 108.8250
L26.5560 107.1750
" />
<path d="M26.5560 106.5750
L26.5560 104.9250
" />
<path d="M26.5560 104.3250
L26.5560 102.6750
" />
<path d="M26.5560 102.0750
L26.5560 100.4250
" />
<path d="M26.5560 99.8250
L26.5560 98.1750
" />
<path d="M26.5560 97.5750
L26.5560 95.9250
" />
<path d="M26.5560 95.3250
L26.5560 93.6750
" />
<path d="M26.5560 93.0750
L26.5560 91.4250
" />
<path d="M26.5560 90.8250
L26.5560 89.1750
" />
<path d="M26.5560 88.5750
L26.5560 86.9250
" />
<path d="M26.5560 86.3250
L26.5560 84.6750
" />
<path d="M26.5560 84.0750
L26.5560 82.4250
" />
<path d="M26.5560 81.8250
L26.5560 80.1750
" />
<path d="M26.5560 79.5750
L26.5560 77.9250
" />
<path d="M26.5560 77.3250
L26.5560 75.6750
" />
<path d="M26.5560 75.0750
L26.5560 73.4250
" />
<path d="M26.5560 72.8250
L26.5560 71.1750
" />
<path d="M26.5560 70.5750
L26.5560 68.9250
" />
<path d="M26.5560 68.3250
L26.5560 66.6750
" />
<path d="M26.5560 66.0750
L26.5560 64.4250
" />
<path d="M26.5560 63.8250
L26.5560 62.1750
" />
<path d="M26.5560 61.5750
L26.5560 59.9250
" />
<path d="M26.5560 59.3250
L26.5560 57.6750
" />
<path d="M26.5560 57.0750
L26.5560 55.4250
" />
<path d="M26.5560 54.8250
L26.5560 53.1750
" />
<path d="M26.5560 52.5750
L26.5560 50.9250
" />
<path d="M26.5560 50.3250
L26.5560 48.6750
" />
</g>
<g style="fill:#000000; fill-opacity:1.0000; 
stroke:#000000; stroke-width:0.0000; stroke-opacity:1; 
stroke-linecap:round; stroke-linejoin:round;">
<circle cx="26.5560" cy="48.0750" r="0.0750" /> 
</g>
<g style="fill:#000000; fill-opacity:1.0000; 
stroke:#000000; stroke-width:0.1500; stroke-opacity:1; 
stroke-linecap:round; stroke-linejoin:round;">
</g>
<g style="fill:#000000; fill-opacity:0.0; 
stroke:#000000; stroke-width:0.1500; stroke-opacity:1; 
stroke-linecap:round; stroke-linejoin:round;">
<path d="M15.5560 3.0750
L17.2060 3.0750
" />
<path d="M17.8060 3.0750
L19.4560 3.0750
" />
<path d="M20.0560 3.0750
L21.7060 3.0750
" />
<path d="M22.3060 3.0750
L23.9560 3.0750
" />
<path d="M24.5560 3.0750
L26.2060 3.0750
" />
<path d="M26.8060 3.0750
L28.4560 3.0750
" />
<path d="M29.0560 3.0750
L30.7060 3.0750
" />
<path d="M31.3060 3.0750
L32.9560 3.0750
" />
<path d="M33.5560 3.0750
L35.2060 3.0750
" />
<path d="M35.8060 3.0750
L37.4560 3.0750
" />
<path d="M38.0560 3.0750
L39.7060 3.0750
" />
<path d="M40.3060 3.0750
L41.9560 3.0750
" />
<path d="M42.5560 3.0750
L44.2060 3.0750
" />
<path d="M44.8060 3.0750
L46.4560 3.0750
" />
<path d="M47.0560 3.0750
L48.7060 3.0750
" />
<path d="M49.3060 3.0750
L50.9560 3.0750
" />
<path d="M51.5560 3.0750
L53.2060 3.0750
" />
<path d="M53.8060 3.0750
L55.4560 3.0750
" />
<path d="M56.0560 3.0750
L57.7060 3.0750
" />
<path d="M58.3060 3.0750
L59.9560 3.0750
" />
<path d="M60.5560 3.0750
L62.2060 3.0750
" />
<path d="M62.8060 3.0750
L64.4560 3.0750
" />
<path d="M65.0560 3.0750
L66.7060 3.0750
" />
<path d="M67.3060 3.0750
L68.9560 3.0750
" />
<path d="M69.5560 3.0750
L71.2060 3.0750
" />
<path d="M71.8060 3.0750
L73.4560 3.0750
" />
<path d="M73.5560 3.0750
L73.5560 4.7250
" />
<path d="M73.5560 5.3250
L73.5560 6.9750
" />
<path d="M73.5560 7.5750
L73.5560 8.0750
" />
<path d="M73.5560 8.0750
L71.9060 8.0750
" />
<path d="M71.3060 8.0750
L69.6560 8.0750
" />
<path d="M69.0560 8.0750
L67.4060 8.0750
" />
<path d="M66.8060 8.0750
L65.1560 8.0750
" />
<path d="M64.5560 8.0750
L62.9060 8.0750
" />
<path d="M62.3060 8.0750
L60.6560 8.0750
" />
<path d="M60.0560 8.0750
L58.4060 8.0750
" />
<path d="M57.8060 8.0750
L56.1560 8.0750
" />
<path d="M55.5560 8.0750
L53.9060 8.0750
" />
<path d="M53.3060 8.0750
L51.6560 8.0750
" />
<path d="M51.0560 8.0750
L49.4060 8.0750
" />
<path d="M48.8060 8.0750
L47.1560 8.0750
" />
<path d="M46.5560 8.0750
L44.9060 8.0750
" />
<path d="M44.3060 8.0750
L42.6560 8.0750
" />
<path d="M42.0560 8.0750
L40.4060 8.0750
" />
<path d="M39.8060 8.0750
L38.1560 8.0750
" />
<path d="M37.5560 8.0750
L35.9060 8.0750
" />
<path d="M35.3060 8.0750
L33.6560 8.0750
" />
<path d="M33.0560 8.0750
L31.4060 8.0750
" />
<path d="M30.8060 8.0750
L29.1560 8.0750
" />
<path d="M28.5560 8.0750
L26.9060 8.0750
" />
<path d="M26.3060 8.0750
L24.6560 8.0750
" />
<path d="M24.0560 8.0750
L22.4060 8.0750
" />
<path d="M21.8060 8.0750
L20.1560 8.0750
" />
<path d="M19.5560 8.0750
L17.9060 8.0750
" />
<path d="M17.3060 8.0750
L15.6560 8.0750
" />
<path d="M15.5560 8.0750
L15.5560 6.4250
" />
<path d="M15.5560 5.8250
L15.5560 4.1750
" />
<path d="M15.5560 3.5750
L15.5560 3.0750
" />
<path d="M15.5560 124.0750
L17.2060 124.0750
" />
<path d="M17.8060 124.0750
L19.4560 124.0750
" />
<path d="M20.0560 124.0750
L21.7060 124.0750
" />
<path d="M22.3060 124.0750
L23.9560 124.0750
" />
<path d="M24.5560 124.0750
L26.2060 124.0750
" />
<path d="M26.8060 124.0750
L28.4560 124.0750
" />
<path d="M29.0560 124.0750
L30.7060 124.0750
" />
<path d="M31.3060 124.0750
L32.9560 124.0750
" />
<path d="M33.5560 124.0750
L35.2060 124.0750
" />
<path d="M35.8060 124.0750
L37.4560 124.0750
" />
<path d="M38.0560 124.0750
L39.7060 124.0750
" />
<path d="M40.3060 124.0750
L41.9560 124.0750
" />
<path d="M42.5560 124.0750
L44.2060 124.0750
" />
<path d="M44.8060 124.0750
L46.4560 124.0750
" />
<path d="M47.0560 124.0750
L48.7060 124.0750
" />
<path d="M49.3060 124.0750
L50.9560 124.0750
" />
<path d="M51.5560 124.0750
L53.2060 124.0750
" />
<path d="M53.8060 124.0750
L55.4560 124.0750
" />
<path d="M56.0560 124.0750
L57.7060 124.0750
" />
<path d="M58.3060 124.0750
L59.9560 124.0750
" />
<path d="M60.5560 124.0750
L62.2060 124.0750
" />
<path d="M62.8060 124.0750
L64.4560 124.0750
" />
<path d="M65.0560 124.0750
L66.7060 124.0750
" />
<path d="M67.3060 124.0750
L68.9560 124.0750
" />
<path d="M69.5560 124.0750
L71.2060 124.0750
" />
<path d="M71.8060 124.0750
L73.4560 124.0750
" />
<path d="M73.5560 124.0750
L73.5560 125.7250
" />
<path d="M73.5560 126.3250
L73.5560 127.9750
" />
<path d="M73.5560 128.5750
L73.5560 129.0750
" />
<path d="M73.5560 129.0750
L71.9060 129.0750
" />
<path d="M71.3060 129.0750
L69.6560 129.0750
" />
<path d="M69.0560 129.0750
L67.4060 129.0750
" />
<path d="M66.8060 129.0750
L65.1560 129.0750
" />
<path d="M64.5560 129.0750
L62.9060 129.0750
" />
<path d="M62.3060 129.0750
L60.6560 129.0750
" />
<path d="M60.0560 129.0750
L58.4060 129.0750
" />
<path d="M57.8060 129.0750
L56.1560 129.0750
" />
<path d="M55.5560 129.0750
L53.9060 129.0750
" />
<path d="M53.3060 129.0750
L51.6560 129.0750
" />
<path d="M51.0560 129.0750
L49.4060 129.0750
" />
<path d="M48.8060 129.0750
L47.1560 129.0750
" />
<path d="M46.5560 129.0750
L44.9060 129.0750
" />
<path d="M44.3060 129.0750
L42.6560 129.0750
" />
<path d="M42.0560 129.0750
L40.4060 129.0750
" />
<path d="M39.8060 129.0750
L38.1560 129.0750
" />
<path d="M37.5560 129.0750
L35.9060 129.0750
" />
<path d="M35.3060 129.0750
L33.6560 129.0750
" />
<path d="M33.0560 129.0750
L31.4060 129.0750
" />
<path d="M30.8060 129.0750
L29.1560 129.0750
" />
<path d="M28.5560 129.0750
L26.9060 129.0750
" />
<path d="M26.3060 129.0750
L24.6560 129.0750
" />
<path d="M24.0560 129.0750
L22.4060 129.0750
" />
<path d="M21.8060 129.0750
L20.1560 129.0750
" />
<path d="M19.5560 129.0750
L17.9060 129.0750
" />
<path d="M17.3060 129.0750
L15.6560 129.0750
" />
<path d="M15.5560 129.0750
L15.5560 127.4250
" />
<path d="M15.5560 126.8250
L15.5560 125.1750
" />
<path d="M15.5560 124.5750
L15.5560 124.0750
" />
</g>
<g style="fill:#000000; fill-opacity:0.0; 
stroke:#000000; stroke-width:0.2000; stroke-opacity:1; 
stroke-linecap:round; stroke-linejoin:round;">
<text x="49.0560" y="84.9750"
textLength="37.6971" font-size="2.4000" lengthAdjust="spacingAndGlyphs"
text-anchor="middle" opacity="0">BATTERY WINDOW 45x72mm</text>
<g class="stroked-text"><desc>BATTERY WINDOW 45x72mm</desc>
<path d="M31.3560 83.9545
L31.6131 84.0402
" />
<path d="M31.6131 84.0402
L31.6988 84.1259
" />
<path d="M31.6988 84.1259
L31.7845 84.2973
" />
<path d="M31.7845 84.2973
L31.7845 84.5545
" />
<path d="M31.7845 84.5545
L31.6988 84.7259
" />
<path d="M31.6988 84.7259
L31.6131 84.8116
" />
<path d="M31.6131 84.8116
L31.4417 84.8973
" />
<path d="M31.4417 84.8973
L30.7560 84.8973
" />
<path d="M30.7560 84.8973
L30.7560 83.0973
" />
<path d="M30.7560 83.0973
L31.3560 83.0973
" />
<path d="M31.3560 83.0973
L31.5274 83.1830
" />
<path d="M31.5274 83.1830
L31.6131 83.2687
" />
<path d="M31.6131 83.2687
L31.6988 83.4402
" />
<path d="M31.6988 83.4402
L31.6988 83.6116
" />
<path d="M31.6988 83.6116
L31.6131 83.7830
" />
<path d="M31.6131 83.7830
L31.5274 83.8687
" />
<path d="M31.5274 83.8687
L31.3560 83.9545
" />
<path d="M31.3560 83.9545
L30.7560 83.9545
" />
<path d="M32.4702 84.3830
L33.3274 84.3830
" />
<path d="M32.2988 84.8973
L32.8988 83.0973
" />
<path d="M32.8988 83.0973
L33.4988 84.8973
" />
<path d="M33.8417 83.0973
L34.8702 83.0973
" />
<path d="M34.3560 84.8973
L34.3560 83.0973
" />
<path d="M35.2131 83.0973
L36.2417 83.0973
" />
<path d="M35.7274 84.8973
L35.7274 83.0973
" />
<path d="M36.8417 83.9545
L37.4417 83.9545
" />
<path d="M37.6988 84.8973
L36.8417 84.8973
" />
<path d="M36.8417 84.8973
L36.8417 83.0973
" />
<path d="M36.8417 83.0973
L37.6988 83.0973
" />
<path d="M39.4988 84.8973
L38.8988 84.0402
" />
<path d="M38.4702 84.8973
L38.4702 83.0973
" />
<path d="M38.4702 83.0973
L39.1560 83.0973
" />
<path d="M39.1560 83.0973
L39.3274 83.1830
" />
<path d="M39.3274 83.1830
L39.4131 83.2687
" />
<path d="M39.4131 83.2687
L39.4988 83.4402
" />
<path d="M39.4988 83.4402
L39.4988 83.6973
" />
<path d="M39.4988 83.6973
L39.4131 83.8687
" />
<path d="M39.4131 83.8687
L39.3274 83.9545
" />
<path d="M39.3274 83.9545
L39.1560 84.0402
" />
<path d="M39.1560 84.0402
L38.4702 84.0402
" />
<path d="M40.6131 84.0402
L40.6131 84.8973
" />
<path d="M40.0131 83.0973
L40.6131 84.0402
" />
<path d="M40.6131 84.0402
L41.2131 83.0973
" />
<path d="M43.0131 83.0973
L43.4417 84.8973
" />
<path d="M43.4417 84.8973
L43.7845 83.6116
" />
<path d="M43.7845 83.6116
L44.1274 84.8973
" />
<path d="M44.1274 84.8973
L44.5560 83.0973
" />
<path d="M45.2417 84.8973
L45.2417 83.0973
" />
<path d="M46.0988 84.8973
L46.0988 83.0973
" />
<path d="M46.0988 83.0973
L47.1274 84.8973
" />
<path d="M47.1274 84.8973
L47.1274 83.0973
" />
<path d="M47.9845 84.8973
L47.9845 83.0973
" />
<path d="M47.9845 83.0973
L48.4131 83.0973
" />
<path d="M48.4131 83.0973
L48.6702 83.1830
" />
<path d="M48.6702 83.1830
L48.8417 83.3545
" />
<path d="M48.8417 83.3545
L48.9274 83.5259
" />
<path d="M48.9274 83.5259
L49.0131 83.8687
" />
<path d="M49.0131 83.8687
L49.0131 84.1259
" />
<path d="M49.0131 84.1259
L48.9274 84.4687
" />
<path d="M48.9274 84.4687
L48.8417 84.6402
" />
<path d="M48.8417 84.6402
L48.6702 84.8116
" />
<path d="M48.6702 84.8116
L48.4131 84.8973
" />
<path d="M48.4131 84.8973
L47.9845 84.8973
" />
<path d="M50.1274 83.0973
L50.4702 83.0973
" />
<path d="M50.4702 83.0973
L50.6417 83.1830
" />
<path d="M50.6417 83.1830
L50.8131 83.3545
" />
<path d="M50.8131 83.3545
L50.8988 83.6973
" />
<path d="M50.8988 83.6973
L50.8988 84.2973
" />
<path d="M50.8988 84.2973
L50.8131 84.6402
" />
<path d="M50.8131 84.6402
L50.6417 84.8116
" />
<path d="M50.6417 84.8116
L50.4702 84.8973
" />
<path d="M50.4702 84.8973
L50.1274 84.8973
" />
<path d="M50.1274 84.8973
L49.9560 84.8116
" />
<path d="M49.9560 84.8116
L49.7845 84.6402
" />
<path d="M49.7845 84.6402
L49.6988 84.2973
" />
<path d="M49.6988 84.2973
L49.6988 83.6973
" />
<path d="M49.6988 83.6973
L49.7845 83.3545
" />
<path d="M49.7845 83.3545
L49.9560 83.1830
" />
<path d="M49.9560 83.1830
L50.1274 83.0973
" />
<path d="M51.4988 83.0973
L51.9274 84.8973
" />
<path d="M51.9274 84.8973
L52.2702 83.6116
" />
<path d="M52.2702 83.6116
L52.6131 84.8973
" />
<path d="M52.6131 84.8973
L53.0417 83.0973
" />
<path d="M55.8702 83.6973
L55.8702 84.8973
" />
<path d="M55.4417 83.0116
L55.0131 84.2973
" />
<path d="M55.0131 84.2973
L56.1274 84.2973
" />
<path d="M57.6702 83.0973
L56.8131 83.0973
" />
<path d="M56.8131 83.0973
L56.7274 83.9545
" />
<path d="M56.7274 83.9545
L56.8131 83.8687
" />
<path d="M56.8131 83.8687
L56.9845 83.7830
" />
<path d="M56.9845 83.7830
L57.4131 83.7830
" />
<path d="M57.4131 83.7830
L57.5845 83.8687
" />
<path d="M57.5845 83.8687
L57.6702 83.9545
" />
<path d="M57.6702 83.9545
L57.7560 84.1259
" />
<path d="M57.7560 84.1259
L57.7560 84.5545
" />
<path d="M57.7560 84.5545
L57.6702 84.7259
" />
<path d="M57.6702 84.7259
L57.5845 84.8116
" />
<path d="M57.5845 84.8116
L57.4131 84.8973
" />
<path d="M57.4131 84.8973
L56.9845 84.8973
" />
<path d="M56.9845 84.8973
L56.8131 84.8116
" />
<path d="M56.8131 84.8116
L56.7274 84.7259
" />
<path d="M58.3560 84.8973
L59.2988 83.6973
" />
<path d="M58.3560 83.6973
L59.2988 84.8973
" />
<path d="M59.8131 83.0973
L61.0131 83.0973
" />
<path d="M61.0131 83.0973
L60.2417 84.8973
" />
<path d="M61.6131 83.2687
L61.6988 83.1830
" />
<path d="M61.6988 83.1830
L61.8702 83.0973
" />
<path d="M61.8702 83.0973
L62.2988 83.0973
" />
<path d="M62.2988 83.0973
L62.4702 83.1830
" />
<path d="M62.4702 83.1830
L62.5560 83.2687
" />
<path d="M62.5560 83.2687
L62.6417 83.4402
" />
<path d="M62.6417 83.4402
L62.6417 83.6116
" />
<path d="M62.6417 83.6116
L62.5560 83.8687
" />
<path d="M62.5560 83.8687
L61.5274 84.8973
" />
<path d="M61.5274 84.8973
L62.6417 84.8973
" />
<path d="M63.4131 84.8973
L63.4131 83.6973
" />
<path d="M63.4131 83.8687
L63.4988 83.7830
" />
<path d="M63.4988 83.7830
L63.6702 83.6973
" />
<path d="M63.6702 83.6973
L63.9274 83.6973
" />
<path d="M63.9274 83.6973
L64.0988 83.7830
" />
<path d="M64.0988 83.7830
L64.1845 83.9545
" />
<path d="M64.1845 83.9545
L64.1845 84.8973
" />
<path d="M64.1845 83.9545
L64.2702 83.7830
" />
<path d="M64.2702 83.7830
L64.4417 83.6973
" />
<path d="M64.4417 83.6973
L64.6988 83.6973
" />
<path d="M64.6988 83.6973
L64.8702 83.7830
" />
<path d="M64.8702 83.7830
L64.9560 83.9545
" />
<path d="M64.9560 83.9545
L64.9560 84.8973
" />
<path d="M65.8131 84.8973
L65.8131 83.6973
" />
<path d="M65.8131 83.8687
L65.8988 83.7830
" />
<path d="M65.8988 83.7830
L66.0702 83.6973
" />
<path d="M66.0702 83.6973
L66.3274 83.6973
" />
<path d="M66.3274 83.6973
L66.4988 83.7830
" />
<path d="M66.4988 83.7830
L66.5845 83.9545
" />
<path d="M66.5845 83.9545
L66.5845 84.8973
" />
<path d="M66.5845 83.9545
L66.6702 83.7830
" />
<path d="M66.6702 83.7830
L66.8417 83.6973
" />
<path d="M66.8417 83.6973
L67.0988 83.6973
" />
<path d="M67.0988 83.6973
L67.2702 83.7830
" />
<path d="M67.2702 83.7830
L67.3560 83.9545
" />
<path d="M67.3560 83.9545
L67.3560 84.8973
" />
</g><g >
</g>
<g >
</g>
<g >
</g>
</g>
<g style="fill:#000000; fill-opacity:0.0; 
stroke:#000000; stroke-width:0.2000; stroke-opacity:1; 
stroke-linecap:round; stroke-linejoin:round;">
</g>
<g style="fill:#000000; fill-opacity:0.0; 
stroke:#000000; stroke-width:0.1500; stroke-opacity:1; 
stroke-linecap:round; stroke-linejoin:round;">
<path style="fill:#000000; fill-opacity:0.0; 
stroke:#000000; stroke-width:0.1500; stroke-opacity:1; 
stroke-linecap:round; stroke-linejoin:round;fill:none"
d="M 12.5560,0.0750
76.5560,0.0750
76.5560,132.0750
12.5560,132.0750
Z" /> 
<g >
</g>
<g >
</g>
<g >
</g>
</g> 
</svg>
