<svg width="150" height="151" viewBox="0 0 150 151" fill="none" xmlns="http://www.w3.org/2000/svg">
<path d="M116.191 96.6326L102.45 111.396C102.152 111.717 101.79 111.972 101.389 112.147C100.987 112.322 100.554 112.412 100.116 112.412H34.9761C34.6653 112.412 34.3612 112.321 34.1013 112.15C33.8414 111.979 33.637 111.736 33.5131 111.45C33.3892 111.165 33.3513 110.849 33.404 110.543C33.4567 110.236 33.5977 109.951 33.8098 109.723L47.5613 94.96C47.8591 94.6401 48.2195 94.3849 48.6198 94.2102C49.0201 94.0355 49.452 93.9449 49.8886 93.9442H115.025C115.336 93.9442 115.64 94.0351 115.9 94.206C116.16 94.3767 116.364 94.6198 116.488 94.9054C116.612 95.191 116.65 95.5065 116.597 95.8133C116.544 96.1203 116.403 96.405 116.191 96.6326ZM102.45 66.9035C102.152 66.5829 101.79 66.3272 101.389 66.1525C100.987 65.9778 100.554 65.8876 100.116 65.8879H34.9761C34.6653 65.8879 34.3612 65.9788 34.1013 66.1495C33.8414 66.3204 33.637 66.5635 33.5131 66.849C33.3892 67.1346 33.3513 67.4502 33.404 67.757C33.4567 68.0639 33.5977 68.3487 33.8098 68.5763L47.5613 83.3397C47.8591 83.6595 48.2195 83.9146 48.6198 84.0893C49.0201 84.264 49.452 84.3546 49.8886 84.3553H115.025C115.336 84.3553 115.64 84.2644 115.9 84.0937C116.16 83.9229 116.364 83.6797 116.488 83.3942C116.612 83.1087 116.65 82.793 116.597 82.4862C116.544 82.1793 116.403 81.8945 116.191 81.6669L102.45 66.9035ZM34.9761 56.299H100.116C100.554 56.2992 100.987 56.2091 101.389 56.0344C101.79 55.8597 102.152 55.604 102.45 55.2833L116.191 40.52C116.403 40.2923 116.544 40.0076 116.597 39.7007C116.65 39.3939 116.612 39.0782 116.488 38.7927C116.364 38.5071 116.16 38.264 115.9 38.0933C115.64 37.9225 115.336 37.8316 115.025 37.8315H49.8886C49.452 37.8323 49.0201 37.9228 48.6198 38.0975C48.2195 38.2722 47.8591 38.5274 47.5613 38.8473L33.8133 53.6106C33.6015 53.8379 33.4605 54.1225 33.4077 54.4289C33.3548 54.7355 33.3924 55.0508 33.5159 55.3362C33.6394 55.6217 33.8433 55.8648 34.1027 56.0358C34.362 56.2068 34.6656 56.2983 34.9761 56.299Z" fill="url(#paint0_linear_1581_13753)"/>
<defs>
<linearGradient id="paint0_linear_1581_13753" x1="40.4072" y1="114.189" x2="108.854" y2="37.1677" gradientUnits="userSpaceOnUse">
<stop offset="0.08" stop-color="#9945FF"/>
<stop offset="0.3" stop-color="#8752F3"/>
<stop offset="0.5" stop-color="#5497D5"/>
<stop offset="0.6" stop-color="#43B4CA"/>
<stop offset="0.72" stop-color="#28E0B9"/>
<stop offset="0.97" stop-color="#19FB9B"/>
</linearGradient>
</defs>
</svg>
