<svg width="150" height="151" viewBox="0 0 150 151" fill="none" xmlns="http://www.w3.org/2000/svg">
<path fill-rule="evenodd" clip-rule="evenodd" d="M74.8781 122.822C89.0126 122.822 101.711 116.674 110.446 106.907C106.383 103.376 100.26 103.161 95.9339 106.652L95.1075 107.318C87.1873 113.709 75.6467 112.765 68.87 105.173C65.174 101.032 58.8443 100.609 54.6303 104.222L45.1023 112.39C53.263 118.918 63.6146 122.822 74.8781 122.822ZM90.344 99.724C97.8878 93.6366 108.491 93.855 115.747 99.7343C120.084 92.5486 122.579 84.1266 122.579 75.1214C122.579 65.1155 119.498 55.8292 114.233 48.1592C110.839 47.4364 107.16 48.2806 104.368 50.7553L103.573 51.4596C95.956 58.2093 84.3842 57.7991 77.2644 50.5272C73.3812 46.5611 67.0387 46.4309 62.9959 50.2343L51.9082 60.6655L45.8086 54.1822L56.8965 43.7509C64.4693 36.6263 76.3507 36.8703 83.6249 44.2997C87.4256 48.1818 93.6031 48.4007 97.6692 44.7974L98.4639 44.0931C100.932 41.9059 103.788 40.4314 106.778 39.6559C98.3268 32.0498 87.143 27.4209 74.8781 27.4209C50.6633 27.4209 30.6629 45.464 27.5874 68.839C34.9424 65.3096 44.0147 66.6677 50.0117 72.8089C53.7975 76.6858 59.8934 77.0949 64.1635 73.7589L70.363 68.9156C78.154 62.8288 89.1678 63.1234 96.6223 69.6183L108.692 80.1337L102.844 86.8453L90.775 76.3298C86.5361 72.6368 80.2735 72.4691 75.843 75.9304L69.6438 80.7735C61.7984 86.9027 50.5985 86.1508 43.643 79.0279C39.5983 74.886 32.9832 74.7414 28.7615 78.7029L27.4199 79.9616C28.4239 89.9247 32.4937 98.9827 38.6715 106.178L48.8366 97.4635C56.7303 90.696 68.5877 91.4881 75.5113 99.2454C79.1289 103.299 85.2895 103.802 89.5176 100.391L90.344 99.724Z" fill="#912C22"/>
</svg>
