<svg width="150" height="151" viewBox="0 0 150 151" fill="none" xmlns="http://www.w3.org/2000/svg">
<path fill-rule="evenodd" clip-rule="evenodd" d="M97.5046 67.1709C101.413 72.0786 103.751 78.2852 103.751 85.0366C103.751 91.788 101.342 98.1841 97.3309 103.119L96.9833 103.546L96.8926 103.005C96.8137 102.547 96.7229 102.081 96.6162 101.615C94.6066 92.7869 88.0606 85.2183 77.2859 79.0866C70.0092 74.9569 65.8439 69.99 64.7504 64.3401C64.0437 60.6881 64.5687 57.0202 65.5833 53.8773C66.5981 50.7385 68.1062 48.1051 69.3895 46.5219L73.5824 41.3971C74.3169 40.4969 75.6948 40.4969 76.429 41.3971L97.5086 67.1709H97.5046ZM104.134 62.0501L76.0382 27.7008C75.5014 27.0454 74.4983 27.0454 73.9615 27.7008L45.87 62.0501L45.7792 62.1648C40.611 68.5806 37.5156 76.7336 37.5156 85.6091C37.5156 106.278 54.2994 123.034 74.9998 123.034C95.7004 123.034 112.484 106.278 112.484 85.6091C112.484 76.7336 109.389 68.5806 104.221 62.1685L104.13 62.0541L104.134 62.0501ZM52.5938 67.0604L55.1049 63.9847L55.1799 64.5533C55.2391 65.0033 55.3141 65.4534 55.401 65.9074C57.0276 74.4396 62.8355 81.5503 72.5441 87.058C80.9853 91.863 85.9007 97.3867 87.3142 103.443C87.9064 105.97 88.0091 108.457 87.7525 110.633L87.7367 110.767L87.6143 110.826C83.8044 112.686 79.5204 113.732 74.9958 113.732C59.1202 113.732 46.249 100.885 46.249 85.0326C46.249 78.226 48.6219 71.9759 52.5859 67.0525L52.5938 67.0604Z" fill="#4DA2FF"/>
</svg>
