<svg width="108" height="108" viewBox="0 0 108 108" fill="none" xmlns="http://www.w3.org/2000/svg">
<path d="M78.0792 23.3999C75.8125 23.3999 73.708 24.5751 72.5206 26.507L59.7279 45.4999C59.3111 46.1259 59.4803 46.9697 60.1062 47.3865C60.6136 47.7247 61.2849 47.6829 61.7469 47.2853L74.3392 36.3635C74.5484 36.1752 74.8709 36.1944 75.0593 36.4036C75.1447 36.4995 75.19 36.6233 75.19 36.7506V70.9459C75.19 71.2283 74.9616 71.455 74.6791 71.455C74.5275 71.455 74.3845 71.3887 74.2886 71.2719L36.2243 25.7084C34.9846 24.2455 33.1643 23.4016 31.2481 23.3999H29.9177C26.3172 23.3999 23.3984 26.3187 23.3984 29.9192V78.0806C23.3984 81.6811 26.3172 84.5999 29.9177 84.5999C32.1844 84.5999 34.2889 83.4247 35.4763 81.4928L48.269 62.4999C48.6857 61.874 48.5166 61.0301 47.8906 60.6133C47.3833 60.2751 46.712 60.3169 46.2499 60.7145L33.6577 71.6363C33.4485 71.8246 33.1259 71.8054 32.9376 71.5962C32.8522 71.5003 32.8068 71.3765 32.8086 71.2492V37.0452C32.8086 36.7628 33.037 36.5361 33.3195 36.5361C33.4694 36.5361 33.6141 36.6024 33.71 36.7192L71.7691 82.2914C73.0088 83.7543 74.8291 84.5982 76.7453 84.5999H78.0757C81.6762 84.6016 84.5967 81.6846 84.6002 78.0841V29.9192C84.6002 26.3187 81.6814 23.3999 78.0809 23.3999H78.0792Z" fill="white"/>
</svg>
