<svg width="150" height="151" viewBox="0 0 150 151" fill="none" xmlns="http://www.w3.org/2000/svg">
<path d="M99.2821 93.2101L123.07 79.4755C124.344 78.7676 125.123 77.4224 125.123 75.9357V48.4667C125.123 47.0508 124.344 45.6348 123.07 44.9269L99.2821 31.2632C98.0077 30.5552 96.4502 30.5552 95.1759 31.2632L71.4591 44.9977C70.1847 45.7056 69.406 47.0508 69.406 48.5375V97.5994L52.698 107.157L36.0608 97.5286V78.3428L52.698 68.7145L63.6715 75.0862V62.1304L54.6803 56.9623C54.0431 56.6083 53.3352 56.3959 52.6272 56.3959C51.9192 56.3959 51.2113 56.6083 50.5741 56.9623L26.9281 70.6968C25.6538 71.4047 24.875 72.7499 24.875 74.2366V101.706C24.875 103.192 25.6538 104.537 26.9281 105.245L50.7157 118.98C51.99 119.688 53.5476 119.688 54.8219 118.98L78.6095 105.245C79.8839 104.537 80.6626 103.192 80.6626 101.706V52.5729L80.9458 52.4313L97.2998 42.9446L114.008 52.5729V71.8295L97.2998 81.4578L86.3263 75.157V88.0419L95.2467 93.2101C96.4502 93.918 98.0077 93.918 99.2821 93.2101Z" fill="url(#paint0_linear_1581_13757)"/>
<defs>
<linearGradient id="paint0_linear_1581_13757" x1="24.5517" y1="104.357" x2="120.8" y2="48.4983" gradientUnits="userSpaceOnUse">
<stop stop-color="#A726C1"/>
<stop offset="0.88" stop-color="#803BDF"/>
<stop offset="1" stop-color="#7B3FE4"/>
</linearGradient>
</defs>
</svg>
