<svg width="150" height="151" viewBox="0 0 150 151" fill="none" xmlns="http://www.w3.org/2000/svg">
<path d="M123.965 56.0934C118.997 51.5056 112.123 44.4998 106.525 39.5311L106.194 39.2992C105.643 38.8567 105.022 38.5096 104.356 38.2724C90.8575 35.7549 28.0368 24.0123 26.8111 24.1613C26.4677 24.2094 26.1395 24.3339 25.8505 24.5257L25.5358 24.7741C25.1484 25.1676 24.8541 25.6431 24.6746 26.1654L24.5918 26.3807V27.7388C31.6639 47.4313 59.5879 111.941 65.0866 127.079C65.4178 128.106 66.0472 130.061 67.2231 130.16H67.4881C68.1175 130.16 70.8006 126.616 70.8006 126.616C70.8006 126.616 118.765 68.4489 123.618 62.2546C124.246 61.4916 124.8 60.6708 125.274 59.8033C125.395 59.1246 125.338 58.4261 125.108 57.776C124.879 57.1258 124.485 56.5461 123.965 56.0934ZM83.1063 62.8674L103.577 45.891L115.585 56.9546L83.1063 62.8674ZM75.1564 61.7577L39.9119 32.8731L96.9358 43.3901L75.1564 61.7577ZM78.3364 69.3267L114.409 63.5133L73.169 113.2L78.3364 69.3267ZM35.1254 35.7549L72.2084 67.2232L66.8422 113.233L35.1254 35.7549Z" fill="#FF060A"/>
</svg>
