<svg width="150" height="151" viewBox="0 0 150 151" fill="none" xmlns="http://www.w3.org/2000/svg">
<path d="M51.583 65.5001L75.0001 42.0839L98.4297 65.5125L112.055 51.8868L75.0001 14.8306L37.9573 51.8744L51.583 65.5001Z" fill="#F3BA2F"/>
<path d="M41.9606 75.1194L28.3351 61.4939L14.709 75.1201L28.3345 88.7455L41.9606 75.1194Z" fill="#F3BA2F"/>
<path d="M51.583 84.7429L75.0001 108.159L98.4287 84.7315L112.062 98.3496L112.055 98.3572L75.0001 135.412L37.9373 98.3506L51.583 84.7429Z" fill="#F3BA2F"/>
<path d="M121.666 88.752L135.293 75.1258L121.667 61.5003L108.041 75.1265L121.666 88.752Z" fill="#F3BA2F"/>
<path d="M88.8211 75.1144H88.8268L75.0001 61.2877L61.1668 75.121L61.1859 75.141L75.0001 88.9553L88.8268 75.1287L88.8335 75.121L88.8211 75.1144Z" fill="#F3BA2F"/>
</svg>
