<svg width="108" height="108" viewBox="0 0 108 108" fill="none" xmlns="http://www.w3.org/2000/svg">
<g clip-path="url(#clip0_1743_20650)">
<mask id="mask0_1743_20650" style="mask-type:luminance" maskUnits="userSpaceOnUse" x="14" y="14" width="80" height="80">
<path d="M53.9999 93.5999C32.128 93.5999 14.3999 75.8718 14.3999 53.9999C14.3999 32.128 32.128 14.3999 53.9999 14.3999C75.8718 14.3999 93.5999 32.128 93.5999 53.9999C93.5999 75.8718 75.8718 93.5999 53.9999 93.5999Z" fill="white"/>
</mask>
<g mask="url(#mask0_1743_20650)">
<path fill-rule="evenodd" clip-rule="evenodd" d="M54.0006 53.9997L6.26465 53.7054L6.30785 51.9504L54.0006 53.9997Z" fill="#FEFEFF"/>
<path fill-rule="evenodd" clip-rule="evenodd" d="M54.0012 53.9999L6.30029 52.2422L6.37319 50.7788L54.0012 53.9999Z" fill="#FDFEFF"/>
<path fill-rule="evenodd" clip-rule="evenodd" d="M54.0011 53.9998L6.35693 51.073L6.46493 49.6123L54.0011 53.9998Z" fill="#FCFDFF"/>
<path fill-rule="evenodd" clip-rule="evenodd" d="M54.0007 53.9997L6.44287 49.9038L6.58597 48.4458L54.0007 53.9997Z" fill="#FBFCFF"/>
<path fill-rule="evenodd" clip-rule="evenodd" d="M54.0018 53.9996L6.56006 48.7373L6.73826 47.2847L54.0018 53.9996Z" fill="#FAFCFF"/>
<path fill-rule="evenodd" clip-rule="evenodd" d="M54.0012 53.9997L6.70264 47.5764L6.91594 46.1265L54.0012 53.9997Z" fill="#F9FBFF"/>
<path fill-rule="evenodd" clip-rule="evenodd" d="M54.0003 53.9997L6.87451 46.4154L7.12291 44.9736L54.0003 53.9997Z" fill="#F8FAFF"/>
<path fill-rule="evenodd" clip-rule="evenodd" d="M54.0017 53.9998L7.07568 45.2626L7.35918 43.8262L54.0017 53.9998Z" fill="#F7FAFF"/>
<path fill-rule="evenodd" clip-rule="evenodd" d="M54.0019 54L7.30273 44.1153L7.62403 42.6843L54.0019 54Z" fill="#F6F9FF"/>
<path fill-rule="evenodd" clip-rule="evenodd" d="M54.0028 53.9995L7.56006 42.97L7.91646 41.5498L54.0028 53.9995Z" fill="#F5F8FF"/>
<path fill-rule="evenodd" clip-rule="evenodd" d="M54.0027 53.9997L7.84619 41.8335L8.23499 40.4214L54.0027 53.9997Z" fill="#F4F8FF"/>
<path fill-rule="evenodd" clip-rule="evenodd" d="M54.0003 53.9998L8.1543 40.705L8.5809 39.3037L54.0003 53.9998Z" fill="#F3F7FF"/>
<path fill-rule="evenodd" clip-rule="evenodd" d="M54.0019 53.9999L8.49609 39.5846L8.95779 38.1941L54.0019 53.9999Z" fill="#F2F6FF"/>
<path fill-rule="evenodd" clip-rule="evenodd" d="M54.0019 53.9997L8.86328 38.472L9.35738 37.0923L54.0019 53.9997Z" fill="#F1F6FF"/>
<path fill-rule="evenodd" clip-rule="evenodd" d="M54.001 53.9997L9.25928 37.3677L9.78578 36.0015L54.001 53.9997Z" fill="#F0F5FF"/>
<path fill-rule="evenodd" clip-rule="evenodd" d="M54.0017 53.9998L9.68115 36.2743L10.2401 34.9216L54.0017 53.9998Z" fill="#EFF4FF"/>
<path fill-rule="evenodd" clip-rule="evenodd" d="M54.0017 53.9999L10.1294 35.1917L10.7234 33.8552L54.0017 53.9999Z" fill="#EEF3FF"/>
<path fill-rule="evenodd" clip-rule="evenodd" d="M54.0001 53.9997L10.603 34.1223L11.2294 32.7993L54.0001 53.9997Z" fill="#EDF3FF"/>
<path fill-rule="evenodd" clip-rule="evenodd" d="M54.0021 53.9997L11.1045 33.0639L11.7633 31.7544L54.0021 53.9997Z" fill="#ECF2FF"/>
<path fill-rule="evenodd" clip-rule="evenodd" d="M54.0015 53.9998L11.6304 32.0164L12.3216 30.7258L54.0015 53.9998Z" fill="#EBF1FF"/>
<path fill-rule="evenodd" clip-rule="evenodd" d="M54.0012 53.9997L12.1836 30.9849L12.9045 29.7078L54.0012 53.9997Z" fill="#EAF1FF"/>
<path fill-rule="evenodd" clip-rule="evenodd" d="M54.001 53.9996L12.7612 29.9642L13.5145 28.7087L54.001 53.9996Z" fill="#E9F0FF"/>
<path fill-rule="evenodd" clip-rule="evenodd" d="M54.0015 54L13.3638 28.9602L14.1468 27.7209L54.0015 54Z" fill="#E8EFFF"/>
<path fill-rule="evenodd" clip-rule="evenodd" d="M54.0015 53.9999L13.9902 27.9692L14.8056 26.7515L54.0015 53.9999Z" fill="#E7EFFF"/>
<path fill-rule="evenodd" clip-rule="evenodd" d="M54.0007 53.9998L14.6401 26.9944L15.4825 25.7983L54.0007 53.9998Z" fill="#E6EEFF"/>
<path fill-rule="evenodd" clip-rule="evenodd" d="M54.0005 53.9997L15.3149 26.0385L16.187 24.8613L54.0005 53.9997Z" fill="#E5EDFF"/>
<path fill-rule="evenodd" clip-rule="evenodd" d="M54.0012 53.9998L16.0122 25.0963L16.914 23.9407L54.0012 53.9998Z" fill="#E4EDFF"/>
<path fill-rule="evenodd" clip-rule="evenodd" d="M54.0015 53.9997L16.7334 24.1728L17.6622 23.0415L54.0015 53.9997Z" fill="#E3ECFF"/>
<path fill-rule="evenodd" clip-rule="evenodd" d="M54.0004 53.9998L17.4775 23.2684L18.4333 22.1587L54.0004 53.9998Z" fill="#E2EBFF"/>
<path fill-rule="evenodd" clip-rule="evenodd" d="M54 53.9998L18.2412 22.3801L19.224 21.2947L54 53.9998Z" fill="#E1EBFF"/>
<path fill-rule="evenodd" clip-rule="evenodd" d="M54.0004 53.9999L19.0273 21.5135L20.0371 20.4524L54.0004 53.9999Z" fill="#E0EAFF"/>
<path fill-rule="evenodd" clip-rule="evenodd" d="M54.0022 53.9999L19.8364 20.6657L20.8732 19.6289L54.0022 53.9999Z" fill="#DFE9FF"/>
<path fill-rule="evenodd" clip-rule="evenodd" d="M54.0012 53.9998L20.667 19.834L21.7254 18.8269L54.0012 53.9998Z" fill="#DEE9FF"/>
<path fill-rule="evenodd" clip-rule="evenodd" d="M54.002 53.9998L21.5156 19.0267L22.601 18.0439L54.002 53.9998Z" fill="#DDE8FF"/>
<path fill-rule="evenodd" clip-rule="evenodd" d="M54.0015 53.9995L22.3818 18.2407L23.4915 17.2849L54.0015 53.9995Z" fill="#DCE7FF"/>
<path fill-rule="evenodd" clip-rule="evenodd" d="M54.0024 53.9998L23.271 17.4769L24.4023 16.5481L54.0024 53.9998Z" fill="#DBE7FF"/>
<path fill-rule="evenodd" clip-rule="evenodd" d="M54.0002 53.9997L24.1733 16.7316L25.3289 15.8325L54.0002 53.9997Z" fill="#DAE6FF"/>
<path fill-rule="evenodd" clip-rule="evenodd" d="M54.0002 53.9998L25.0967 16.0108L26.2739 15.1387L54.0002 53.9998Z" fill="#D9E5FF"/>
<path fill-rule="evenodd" clip-rule="evenodd" d="M54.0012 53.9997L26.04 15.3141L27.2361 14.4717L54.0012 53.9997Z" fill="#D8E5FF"/>
<path fill-rule="evenodd" clip-rule="evenodd" d="M54.0005 54L26.9951 14.6394L28.2128 13.8267L54.0005 54Z" fill="#D7E4FF"/>
<path fill-rule="evenodd" clip-rule="evenodd" d="M54.0009 53.9999L27.9702 13.9886L29.2095 13.2056L54.0009 53.9999Z" fill="#D6E3FF"/>
<path fill-rule="evenodd" clip-rule="evenodd" d="M54.0012 53.9996L28.9614 13.3619L30.2169 12.6086L54.0012 53.9996Z" fill="#D5E3FF"/>
<path fill-rule="evenodd" clip-rule="evenodd" d="M54.0002 53.9998L29.9648 12.76L31.2392 12.0391L54.0002 53.9998Z" fill="#D4E2FF"/>
<path fill-rule="evenodd" clip-rule="evenodd" d="M54.0006 53.9998L30.9858 12.1822L32.2764 11.491L54.0006 53.9998Z" fill="#D3E1FF"/>
<path fill-rule="evenodd" clip-rule="evenodd" d="M54.0015 53.9996L32.0181 11.6285L33.3276 10.9724L54.0015 53.9996Z" fill="#D2E0FF"/>
<path fill-rule="evenodd" clip-rule="evenodd" d="M54.0012 53.9996L33.0654 11.102L34.3884 10.4783L54.0012 53.9996Z" fill="#D1E0FF"/>
<path fill-rule="evenodd" clip-rule="evenodd" d="M54.0024 53.9999L34.125 10.6028L35.4642 10.0088L54.0024 53.9999Z" fill="#D0DFFF"/>
<path fill-rule="evenodd" clip-rule="evenodd" d="M54.0016 53.9998L35.1934 10.1275L36.5488 9.56592L54.0016 53.9998Z" fill="#CFDEFF"/>
<path fill-rule="evenodd" clip-rule="evenodd" d="M54.0009 53.9998L36.2754 9.67933L37.6443 9.15283L54.0009 53.9998Z" fill="#CEDEFF"/>
<path fill-rule="evenodd" clip-rule="evenodd" d="M54.0011 54L37.3691 9.25826L38.7488 8.76416L54.0011 54Z" fill="#CDDDFF"/>
<path fill-rule="evenodd" clip-rule="evenodd" d="M54.0018 53.9997L38.4741 8.86109L39.8646 8.40479L54.0018 53.9997Z" fill="#CCDCFF"/>
<path fill-rule="evenodd" clip-rule="evenodd" d="M54.0022 53.9995L39.5869 8.49372L40.9882 8.06982L54.0022 53.9995Z" fill="#CBDCFF"/>
<path fill-rule="evenodd" clip-rule="evenodd" d="M54.0013 53.9997L40.7065 8.15369L42.1186 7.76489L54.0013 53.9997Z" fill="#CADBFF"/>
<path fill-rule="evenodd" clip-rule="evenodd" d="M54.0012 54L41.835 7.84346L43.2552 7.48706L54.0012 54Z" fill="#C9DAFF"/>
<path fill-rule="evenodd" clip-rule="evenodd" d="M54.0007 53.9996L42.9712 7.55688L44.3995 7.23828L54.0007 53.9996Z" fill="#C8DAFF"/>
<path fill-rule="evenodd" clip-rule="evenodd" d="M54.0024 53.9998L44.1177 7.30059L45.5514 7.01709L54.0024 53.9998Z" fill="#C7D9FF"/>
<path fill-rule="evenodd" clip-rule="evenodd" d="M54.0018 53.9996L45.2646 7.07361L46.7064 6.82251L54.0018 53.9996Z" fill="#C6D8FF"/>
<path fill-rule="evenodd" clip-rule="evenodd" d="M54.0013 53.9998L46.417 6.87396L47.8669 6.65796L54.0013 53.9998Z" fill="#C5D8FF"/>
<path fill-rule="evenodd" clip-rule="evenodd" d="M54.0009 53.9997L47.5776 6.70115L49.0302 6.52295L54.0009 53.9997Z" fill="#C4D7FF"/>
<path fill-rule="evenodd" clip-rule="evenodd" d="M54.0016 53.9998L48.7393 6.55814L50.1973 6.41504L54.0016 53.9998Z" fill="#C3D6FF"/>
<path fill-rule="evenodd" clip-rule="evenodd" d="M54.0012 53.9998L49.9053 6.44199L51.366 6.33398L54.0012 53.9998Z" fill="#C2D6FF"/>
<path fill-rule="evenodd" clip-rule="evenodd" d="M54.001 54L51.0742 6.35585L52.5376 6.28564L54.001 54Z" fill="#C1D5FF"/>
<path fill-rule="evenodd" clip-rule="evenodd" d="M54.0018 53.9999L52.2441 6.29902L53.7075 6.26392L54.0018 53.9999Z" fill="#C0D4FF"/>
<path fill-rule="evenodd" clip-rule="evenodd" d="M54.0014 53.9999L53.4155 6.26929H54.8789L54.0014 53.9999Z" fill="#BFD4FF"/>
<path fill-rule="evenodd" clip-rule="evenodd" d="M54.001 53.9999L54.5869 6.26929L56.0503 6.30709L54.001 53.9999Z" fill="#BED3FF"/>
<path fill-rule="evenodd" clip-rule="evenodd" d="M54.001 53.9997L55.7587 6.29883L57.2194 6.37173L54.001 53.9997Z" fill="#BDD2FF"/>
<path fill-rule="evenodd" clip-rule="evenodd" d="M54.001 53.9997L56.9278 6.35547L58.3885 6.46347L54.001 53.9997Z" fill="#BCD2FF"/>
<path fill-rule="evenodd" clip-rule="evenodd" d="M54.001 53.9997L58.0969 6.44189L59.5549 6.58499L54.001 53.9997Z" fill="#BBD1FF"/>
<path fill-rule="evenodd" clip-rule="evenodd" d="M54.001 53.9998L59.2606 6.55811L60.7159 6.73631L54.001 53.9998Z" fill="#BAD0FF"/>
<path fill-rule="evenodd" clip-rule="evenodd" d="M54.001 53.9998L60.4243 6.70117L61.8742 6.91447L54.001 53.9998Z" fill="#B9D0FF"/>
<path fill-rule="evenodd" clip-rule="evenodd" d="M54.001 53.9998L61.5826 6.87402L63.0271 7.12242L54.001 53.9998Z" fill="#B8CFFF"/>
<path fill-rule="evenodd" clip-rule="evenodd" d="M54.001 53.9997L62.7382 7.07373L64.1746 7.35723L54.001 53.9997Z" fill="#B7CEFF"/>
<path fill-rule="evenodd" clip-rule="evenodd" d="M54.001 53.9997L63.8857 7.30054L65.3167 7.62184L54.001 53.9997Z" fill="#B6CDFF"/>
<path fill-rule="evenodd" clip-rule="evenodd" d="M54.001 53.9998L65.0305 7.55713L66.4507 7.91353L54.001 53.9998Z" fill="#B5CDFF"/>
<path fill-rule="evenodd" clip-rule="evenodd" d="M54.001 53.9998L66.1672 7.84326L67.5766 8.23206L54.001 53.9998Z" fill="#B4CCFF"/>
<path fill-rule="evenodd" clip-rule="evenodd" d="M54.001 53.9998L67.2958 8.15381L68.6971 8.58041L54.001 53.9998Z" fill="#B3CBFF"/>
<path fill-rule="evenodd" clip-rule="evenodd" d="M54.001 53.9997L68.4163 8.4939L69.8068 8.9556L54.001 53.9997Z" fill="#B2CBFF"/>
<path fill-rule="evenodd" clip-rule="evenodd" d="M54.001 53.9997L69.5287 8.86108L70.9084 9.35518L54.001 53.9997Z" fill="#B1CAFF"/>
<path fill-rule="evenodd" clip-rule="evenodd" d="M54.001 53.9998L70.633 9.25806L71.9992 9.78456L54.001 53.9998Z" fill="#B0C9FF"/>
<path fill-rule="evenodd" clip-rule="evenodd" d="M54.001 53.9997L71.7238 9.6792L73.0792 10.2381L54.001 53.9997Z" fill="#AFC9FF"/>
<path fill-rule="evenodd" clip-rule="evenodd" d="M54.001 53.9997L72.8065 10.1274L74.1457 10.7214L54.001 53.9997Z" fill="#AEC8FF"/>
<path fill-rule="evenodd" clip-rule="evenodd" d="M54.001 53.9999L73.8784 10.6028L75.2014 11.2292L54.001 53.9999Z" fill="#ADC7FF"/>
<path fill-rule="evenodd" clip-rule="evenodd" d="M54.001 53.9996L74.9368 11.1021L76.2463 11.7609L54.001 53.9996Z" fill="#ACC7FF"/>
<path fill-rule="evenodd" clip-rule="evenodd" d="M54.001 53.9998L75.9844 11.6287L77.275 12.3199L54.001 53.9998Z" fill="#ABC6FF"/>
<path fill-rule="evenodd" clip-rule="evenodd" d="M54.001 53.9997L77.0158 12.1821L78.2929 12.903L54.001 53.9997Z" fill="#AAC5FF"/>
<path fill-rule="evenodd" clip-rule="evenodd" d="M54.001 53.9998L78.0364 12.76L79.2919 13.5133L54.001 53.9998Z" fill="#A9C5FF"/>
<path fill-rule="evenodd" clip-rule="evenodd" d="M54.001 53.9998L79.0408 13.3621L80.2774 14.1451L54.001 53.9998Z" fill="#A8C4FF"/>
<path fill-rule="evenodd" clip-rule="evenodd" d="M54.001 53.9998L80.0317 13.9885L81.2494 14.8039L54.001 53.9998Z" fill="#A7C3FF"/>
<path fill-rule="evenodd" clip-rule="evenodd" d="M54.001 53.9998L81.0064 14.6392L82.2025 15.4816L54.001 53.9998Z" fill="#A6C3FF"/>
<path fill-rule="evenodd" clip-rule="evenodd" d="M54.001 53.9998L81.9622 15.3142L83.1394 16.1863L54.001 53.9998Z" fill="#A5C2FF"/>
<path fill-rule="evenodd" clip-rule="evenodd" d="M54.001 53.9997L82.9045 16.0107L84.0574 16.9125L54.001 53.9997Z" fill="#A4C1FF"/>
<path fill-rule="evenodd" clip-rule="evenodd" d="M54.001 53.9998L83.8279 16.7317L84.9592 17.6605L54.001 53.9998Z" fill="#A3C1FF"/>
<path fill-rule="evenodd" clip-rule="evenodd" d="M54.001 54L84.7324 17.4771L85.8421 18.4329L54.001 54Z" fill="#A2C0FF"/>
<path fill-rule="evenodd" clip-rule="evenodd" d="M54.001 53.9995L85.6207 18.2407L86.7061 19.2235L54.001 53.9995Z" fill="#A1BFFF"/>
<path fill-rule="evenodd" clip-rule="evenodd" d="M54.001 53.9997L86.4874 19.0266L87.5485 20.0364L54.001 53.9997Z" fill="#A0BFFF"/>
<path fill-rule="evenodd" clip-rule="evenodd" d="M54.001 53.9998L87.3352 19.834L88.372 20.8708L54.001 53.9998Z" fill="#9FBEFF"/>
<path fill-rule="evenodd" clip-rule="evenodd" d="M54.001 53.9997L88.1641 20.6655L89.1739 21.7239L54.001 53.9997Z" fill="#9EBDFF"/>
<path fill-rule="evenodd" clip-rule="evenodd" d="M54.001 53.9998L88.9741 21.5134L89.9569 22.5988L54.001 53.9998Z" fill="#9DBDFF"/>
<path fill-rule="evenodd" clip-rule="evenodd" d="M54.001 53.9998L89.7598 22.3801L90.7156 23.4898L54.001 53.9998Z" fill="#9CBCFF"/>
<path fill-rule="evenodd" clip-rule="evenodd" d="M54.001 53.9997L90.5239 23.2683L91.4527 24.3996L54.001 53.9997Z" fill="#9BBBFF"/>
<path fill-rule="evenodd" clip-rule="evenodd" d="M54.001 53.9998L91.2691 24.1729L92.1682 25.3285L54.001 53.9998Z" fill="#9ABAFF"/>
<path fill-rule="evenodd" clip-rule="evenodd" d="M54.001 53.9997L91.99 25.0962L92.8621 26.2734L54.001 53.9997Z" fill="#99BAFF"/>
<path fill-rule="evenodd" clip-rule="evenodd" d="M54.001 53.9998L92.6866 26.0386L93.529 27.2347L54.001 53.9998Z" fill="#98B9FF"/>
<path fill-rule="evenodd" clip-rule="evenodd" d="M54.001 53.9998L93.3616 26.9944L94.1743 28.2121L54.001 53.9998Z" fill="#97B8FF"/>
<path fill-rule="evenodd" clip-rule="evenodd" d="M54.001 53.9997L94.0123 27.969L94.7953 29.2083L54.001 53.9997Z" fill="#96B8FF"/>
<path fill-rule="evenodd" clip-rule="evenodd" d="M54.001 53.9998L94.6387 28.96L95.392 30.2155L54.001 53.9998Z" fill="#95B7FF"/>
<path fill-rule="evenodd" clip-rule="evenodd" d="M54.001 53.9998L95.2408 29.9644L95.9617 31.2388L54.001 53.9998Z" fill="#94B6FF"/>
<path fill-rule="evenodd" clip-rule="evenodd" d="M54.001 53.9999L95.8186 30.9851L96.5071 32.2757L54.001 53.9999Z" fill="#93B6FF"/>
<path fill-rule="evenodd" clip-rule="evenodd" d="M54.001 53.9995L96.3694 32.0161L97.0282 33.3256L54.001 53.9995Z" fill="#92B5FF"/>
<path fill-rule="evenodd" clip-rule="evenodd" d="M54.001 53.9998L96.8986 33.064L97.5223 34.387L54.001 53.9998Z" fill="#91B4FF"/>
<path fill-rule="evenodd" clip-rule="evenodd" d="M54.001 53.9997L97.3981 34.1223L97.9921 35.4615L54.001 53.9997Z" fill="#90B4FF"/>
<path fill-rule="evenodd" clip-rule="evenodd" d="M54.001 53.9996L97.8733 35.1914L98.4322 36.5468L54.001 53.9996Z" fill="#8FB3FF"/>
<path fill-rule="evenodd" clip-rule="evenodd" d="M54.001 53.9999L98.3215 36.2744L98.848 37.6433L54.001 53.9999Z" fill="#8EB2FF"/>
<path fill-rule="evenodd" clip-rule="evenodd" d="M54.001 53.9997L98.7427 37.3677L99.2368 38.7474L54.001 53.9997Z" fill="#8DB2FF"/>
<path fill-rule="evenodd" clip-rule="evenodd" d="M54.001 53.9999L99.1369 38.4722L99.5959 39.8627L54.001 53.9999Z" fill="#8CB1FF"/>
<path fill-rule="evenodd" clip-rule="evenodd" d="M54.001 54L99.5041 39.5847L99.9307 40.986L54.001 54Z" fill="#8BB0FF"/>
<path fill-rule="evenodd" clip-rule="evenodd" d="M54.001 53.9996L99.8443 40.7048L100.236 42.1169L54.001 53.9996Z" fill="#8AB0FF"/>
<path fill-rule="evenodd" clip-rule="evenodd" d="M54.001 53.9999L100.157 41.8337L100.514 43.2539L54.001 53.9999Z" fill="#89AFFF"/>
<path fill-rule="evenodd" clip-rule="evenodd" d="M54.001 53.9997L100.444 42.9702L100.762 44.3985L54.001 53.9997Z" fill="#88AEFF"/>
<path fill-rule="evenodd" clip-rule="evenodd" d="M54.001 53.9997L100.697 44.115L100.984 45.5487L54.001 53.9997Z" fill="#87AEFF"/>
<path fill-rule="evenodd" clip-rule="evenodd" d="M54.001 53.9997L100.927 45.2625L101.178 46.7043L54.001 53.9997Z" fill="#86ADFF"/>
<path fill-rule="evenodd" clip-rule="evenodd" d="M54.001 53.9998L101.127 46.4155L101.343 47.8654L54.001 53.9998Z" fill="#85ACFF"/>
<path fill-rule="evenodd" clip-rule="evenodd" d="M54.001 54L101.3 47.5767L101.478 49.0293L54.001 54Z" fill="#84ACFF"/>
<path fill-rule="evenodd" clip-rule="evenodd" d="M54.001 53.9998L101.443 48.7375L101.586 50.1955L54.001 53.9998Z" fill="#83ABFF"/>
<path fill-rule="evenodd" clip-rule="evenodd" d="M54.001 53.9997L101.559 49.9038L101.667 51.3645L54.001 53.9997Z" fill="#82AAFF"/>
<path fill-rule="evenodd" clip-rule="evenodd" d="M54.001 53.9998L101.645 51.073L101.715 52.5364L54.001 53.9998Z" fill="#81AAFF"/>
<path fill-rule="evenodd" clip-rule="evenodd" d="M54.001 53.9999L101.702 52.2422L101.737 53.7056L54.001 53.9999Z" fill="#80A9FF"/>
<path fill-rule="evenodd" clip-rule="evenodd" d="M54.001 53.9997L101.729 53.4138V54.8772L54.001 53.9997Z" fill="#7FA8FF"/>
<path fill-rule="evenodd" clip-rule="evenodd" d="M54.001 53.9998L101.729 54.5857L101.694 56.0491L54.001 53.9998Z" fill="#7EA7FF"/>
<path fill-rule="evenodd" clip-rule="evenodd" d="M54.001 53.9998L101.702 55.7575L101.629 57.2182L54.001 53.9998Z" fill="#7DA7FF"/>
<path fill-rule="evenodd" clip-rule="evenodd" d="M54.001 53.9998L101.645 56.9266L101.537 58.3873L54.001 53.9998Z" fill="#7CA6FF"/>
<path fill-rule="evenodd" clip-rule="evenodd" d="M54.001 53.9998L101.559 58.0957L101.416 59.5537L54.001 53.9998Z" fill="#7BA5FF"/>
<path fill-rule="evenodd" clip-rule="evenodd" d="M54.001 53.9998L101.443 59.2594L101.264 60.7147L54.001 53.9998Z" fill="#7AA5FF"/>
<path fill-rule="evenodd" clip-rule="evenodd" d="M54.001 53.9998L101.3 60.4231L101.084 61.873L54.001 53.9998Z" fill="#79A4FF"/>
<path fill-rule="evenodd" clip-rule="evenodd" d="M54.001 53.9998L101.127 61.5814L100.878 63.0259L54.001 53.9998Z" fill="#78A3FF"/>
<path fill-rule="evenodd" clip-rule="evenodd" d="M54.001 53.9998L100.927 62.737L100.641 64.1734L54.001 53.9998Z" fill="#77A3FF"/>
<path fill-rule="evenodd" clip-rule="evenodd" d="M54.001 53.9998L100.697 63.8845L100.379 65.3155L54.001 53.9998Z" fill="#76A2FF"/>
<path fill-rule="evenodd" clip-rule="evenodd" d="M54.001 53.9998L100.444 65.0293L100.087 66.4495L54.001 53.9998Z" fill="#75A1FF"/>
<path fill-rule="evenodd" clip-rule="evenodd" d="M54.001 53.9998L100.157 66.166L99.7687 67.5754L54.001 53.9998Z" fill="#74A1FF"/>
<path fill-rule="evenodd" clip-rule="evenodd" d="M54.001 53.9998L99.8443 67.2946L99.4204 68.6959L54.001 53.9998Z" fill="#73A0FF"/>
<path fill-rule="evenodd" clip-rule="evenodd" d="M54.001 53.9998L99.5041 68.4151L99.0451 69.8056L54.001 53.9998Z" fill="#729FFF"/>
<path fill-rule="evenodd" clip-rule="evenodd" d="M54.001 53.9998L99.1369 69.5275L98.6455 70.9072L54.001 53.9998Z" fill="#719FFF"/>
<path fill-rule="evenodd" clip-rule="evenodd" d="M54.001 53.9998L98.7427 70.6318L98.2162 71.998L54.001 53.9998Z" fill="#709EFF"/>
<path fill-rule="evenodd" clip-rule="evenodd" d="M54.001 53.9998L98.3215 71.7226L97.7599 73.078L54.001 53.9998Z" fill="#6F9DFF"/>
<path fill-rule="evenodd" clip-rule="evenodd" d="M54.001 53.9998L97.8733 72.8053L97.2793 74.1445L54.001 53.9998Z" fill="#6E9DFF"/>
<path fill-rule="evenodd" clip-rule="evenodd" d="M54.001 53.9998L97.3981 73.8772L96.7717 75.2002L54.001 53.9998Z" fill="#6D9CFF"/>
<path fill-rule="evenodd" clip-rule="evenodd" d="M54.001 53.9998L96.8986 74.9356L96.2398 76.2451L54.001 53.9998Z" fill="#6C9BFF"/>
<path fill-rule="evenodd" clip-rule="evenodd" d="M54.001 53.9998L96.3694 75.9832L95.6809 77.2738L54.001 53.9998Z" fill="#6B9BFF"/>
<path fill-rule="evenodd" clip-rule="evenodd" d="M54.001 53.9998L95.8186 77.0146L95.0977 78.2917L54.001 53.9998Z" fill="#6A9AFF"/>
<path fill-rule="evenodd" clip-rule="evenodd" d="M54.001 53.9998L95.2408 78.0352L94.4875 79.2907L54.001 53.9998Z" fill="#6999FF"/>
<path fill-rule="evenodd" clip-rule="evenodd" d="M54.001 53.9998L94.6387 79.0396L93.8557 80.2762L54.001 53.9998Z" fill="#6899FF"/>
<path fill-rule="evenodd" clip-rule="evenodd" d="M54.001 53.9998L94.0123 80.0305L93.1969 81.2482L54.001 53.9998Z" fill="#6798FF"/>
<path fill-rule="evenodd" clip-rule="evenodd" d="M54.001 53.9998L93.3616 81.0052L92.5192 82.2013L54.001 53.9998Z" fill="#6697FF"/>
<path fill-rule="evenodd" clip-rule="evenodd" d="M54.001 53.9998L92.6866 81.961L91.8145 83.1382L54.001 53.9998Z" fill="#6597FF"/>
<path fill-rule="evenodd" clip-rule="evenodd" d="M54.001 53.9998L91.99 82.9033L91.0882 84.0562L54.001 53.9998Z" fill="#6496FF"/>
<path fill-rule="evenodd" clip-rule="evenodd" d="M54.001 53.9998L91.2691 83.8267L90.3403 84.958L54.001 53.9998Z" fill="#6395FF"/>
<path fill-rule="evenodd" clip-rule="evenodd" d="M54.001 53.9998L90.5239 84.7312L89.5681 85.8409L54.001 53.9998Z" fill="#6294FF"/>
<path fill-rule="evenodd" clip-rule="evenodd" d="M54.001 53.9998L89.7598 85.6195L88.777 86.7049L54.001 53.9998Z" fill="#6194FF"/>
<path fill-rule="evenodd" clip-rule="evenodd" d="M54.001 53.9998L88.9741 86.4862L87.9643 87.5473L54.001 53.9998Z" fill="#6093FF"/>
<path fill-rule="evenodd" clip-rule="evenodd" d="M54.001 53.9998L88.1641 87.334L87.13 88.3708L54.001 53.9998Z" fill="#5F92FF"/>
<path fill-rule="evenodd" clip-rule="evenodd" d="M54.001 53.9998L87.3352 88.1629L86.2768 89.1727L54.001 53.9998Z" fill="#5E92FF"/>
<path fill-rule="evenodd" clip-rule="evenodd" d="M54.001 53.9998L86.4874 88.9729L85.402 89.9557L54.001 53.9998Z" fill="#5D91FF"/>
<path fill-rule="evenodd" clip-rule="evenodd" d="M54.001 53.9998L85.6207 89.7586L84.511 90.7144L54.001 53.9998Z" fill="#5C90FF"/>
<path fill-rule="evenodd" clip-rule="evenodd" d="M54.001 53.9998L84.7324 90.5227L83.6011 91.4515L54.001 53.9998Z" fill="#5B90FF"/>
<path fill-rule="evenodd" clip-rule="evenodd" d="M54.001 53.9998L83.8279 91.2679L82.6723 92.167L54.001 53.9998Z" fill="#5A8FFF"/>
<path fill-rule="evenodd" clip-rule="evenodd" d="M54.001 53.9998L82.9045 91.9888L81.7273 92.8609L54.001 53.9998Z" fill="#598EFF"/>
<path fill-rule="evenodd" clip-rule="evenodd" d="M54.001 53.9998L81.9622 92.6854L80.7661 93.5278L54.001 53.9998Z" fill="#588EFF"/>
<path fill-rule="evenodd" clip-rule="evenodd" d="M54.001 53.9998L81.0064 93.3604L79.786 94.1731L54.001 53.9998Z" fill="#578DFF"/>
<path fill-rule="evenodd" clip-rule="evenodd" d="M54.001 53.9998L80.0317 94.011L78.7924 94.794L54.001 53.9998Z" fill="#568CFF"/>
<path fill-rule="evenodd" clip-rule="evenodd" d="M54.001 53.9998L79.0408 94.6375L77.7853 95.3908L54.001 53.9998Z" fill="#558CFF"/>
<path fill-rule="evenodd" clip-rule="evenodd" d="M54.001 53.9998L78.0364 95.2396L76.762 95.9605L54.001 53.9998Z" fill="#548BFF"/>
<path fill-rule="evenodd" clip-rule="evenodd" d="M54.001 53.9998L77.0158 95.8174L75.7252 96.5059L54.001 53.9998Z" fill="#538AFF"/>
<path fill-rule="evenodd" clip-rule="evenodd" d="M54.001 53.9998L75.9844 96.3682L74.6749 97.027L54.001 53.9998Z" fill="#528AFF"/>
<path fill-rule="evenodd" clip-rule="evenodd" d="M54.001 53.9998L74.9368 96.8974L73.6138 97.521L54.001 53.9998Z" fill="#5189FF"/>
<path fill-rule="evenodd" clip-rule="evenodd" d="M54.001 53.9998L73.8784 97.3969L72.5392 97.9909L54.001 53.9998Z" fill="#5088FF"/>
<path fill-rule="evenodd" clip-rule="evenodd" d="M54.001 53.9998L72.8065 97.8721L71.4538 98.431L54.001 53.9998Z" fill="#4F88FF"/>
<path fill-rule="evenodd" clip-rule="evenodd" d="M54.001 53.9998L71.7238 98.3203L70.3576 98.8468L54.001 53.9998Z" fill="#4E87FF"/>
<path fill-rule="evenodd" clip-rule="evenodd" d="M54.001 53.9998L70.633 98.7415L69.2533 99.2356L54.001 53.9998Z" fill="#4D86FF"/>
<path fill-rule="evenodd" clip-rule="evenodd" d="M54.001 53.9998L69.5287 99.1357L68.1382 99.5947L54.001 53.9998Z" fill="#4C86FF"/>
<path fill-rule="evenodd" clip-rule="evenodd" d="M54.001 53.9998L68.4163 99.5029L67.015 99.9295L54.001 53.9998Z" fill="#4B85FF"/>
<path fill-rule="evenodd" clip-rule="evenodd" d="M54.001 53.9998L67.2958 99.8431L65.8837 100.235L54.001 53.9998Z" fill="#4A84FF"/>
<path fill-rule="evenodd" clip-rule="evenodd" d="M54.001 53.9998L66.1672 100.156L64.7443 100.513L54.001 53.9998Z" fill="#4984FF"/>
<path fill-rule="evenodd" clip-rule="evenodd" d="M54.001 53.9998L65.0305 100.442L63.6022 100.761L54.001 53.9998Z" fill="#4883FF"/>
<path fill-rule="evenodd" clip-rule="evenodd" d="M54.001 53.9998L63.8857 100.696L62.4493 100.982L54.001 53.9998Z" fill="#4782FF"/>
<path fill-rule="evenodd" clip-rule="evenodd" d="M54.001 53.9998L62.7382 100.926L61.2964 101.177L54.001 53.9998Z" fill="#4681FF"/>
<path fill-rule="evenodd" clip-rule="evenodd" d="M54.001 53.9998L61.5826 101.126L60.1354 101.342L54.001 53.9998Z" fill="#4581FF"/>
<path fill-rule="evenodd" clip-rule="evenodd" d="M54.001 53.9998L60.4243 101.298L58.9717 101.477L54.001 53.9998Z" fill="#4480FF"/>
<path fill-rule="evenodd" clip-rule="evenodd" d="M54.001 53.9998L59.2606 101.441L57.8053 101.585L54.001 53.9998Z" fill="#437FFF"/>
<path fill-rule="evenodd" clip-rule="evenodd" d="M54.001 53.9998L58.0969 101.558L56.6362 101.666L54.001 53.9998Z" fill="#427FFF"/>
<path fill-rule="evenodd" clip-rule="evenodd" d="M54.001 53.9998L56.9278 101.644L55.4644 101.714L54.001 53.9998Z" fill="#417EFF"/>
<path fill-rule="evenodd" clip-rule="evenodd" d="M54.001 53.9998L55.7587 101.701L54.2926 101.736L54.001 53.9998Z" fill="#407DFF"/>
<path fill-rule="evenodd" clip-rule="evenodd" d="M54.0003 53.9998L54.5862 101.728H53.1201L54.0003 53.9998Z" fill="#3F7DFF"/>
<path fill-rule="evenodd" clip-rule="evenodd" d="M54.0024 53.9998L53.4165 101.728L51.9531 101.693L54.0024 53.9998Z" fill="#3E7CFF"/>
<path fill-rule="evenodd" clip-rule="evenodd" d="M54.0024 53.9998L52.2447 101.701L50.7812 101.628L54.0024 53.9998Z" fill="#3D7BFF"/>
<path fill-rule="evenodd" clip-rule="evenodd" d="M54.0003 53.9998L51.0735 101.644L49.6128 101.536L54.0003 53.9998Z" fill="#3C7BFF"/>
<path fill-rule="evenodd" clip-rule="evenodd" d="M54.0012 53.9998L49.9053 101.558L48.4473 101.414L54.0012 53.9998Z" fill="#3B7AFF"/>
<path fill-rule="evenodd" clip-rule="evenodd" d="M54.0015 53.9998L48.7392 101.441L47.2866 101.263L54.0015 53.9998Z" fill="#3A79FF"/>
<path fill-rule="evenodd" clip-rule="evenodd" d="M54.0002 53.9998L47.5769 101.298L46.127 101.082L54.0002 53.9998Z" fill="#3979FF"/>
<path fill-rule="evenodd" clip-rule="evenodd" d="M54.0002 53.9998L46.4159 101.126L44.9741 100.877L54.0002 53.9998Z" fill="#3878FF"/>
<path fill-rule="evenodd" clip-rule="evenodd" d="M54.0012 53.9998L45.264 100.926L43.8276 100.64L54.0012 53.9998Z" fill="#3777FF"/>
<path fill-rule="evenodd" clip-rule="evenodd" d="M54.0012 53.9998L44.1165 100.696L42.6855 100.378L54.0012 53.9998Z" fill="#3677FF"/>
<path fill-rule="evenodd" clip-rule="evenodd" d="M54.0019 53.9998L42.9724 100.442L41.5522 100.086L54.0019 53.9998Z" fill="#3576FF"/>
<path fill-rule="evenodd" clip-rule="evenodd" d="M54.0016 53.9998L41.8354 100.156L40.4233 99.7675L54.0016 53.9998Z" fill="#3475FF"/>
<path fill-rule="evenodd" clip-rule="evenodd" d="M54.0018 53.9998L40.707 99.843L39.3057 99.4192L54.0018 53.9998Z" fill="#3375FF"/>
<path fill-rule="evenodd" clip-rule="evenodd" d="M54.0016 53.9998L39.5863 99.5029L38.1958 99.0439L54.0016 53.9998Z" fill="#3274FF"/>
<path fill-rule="evenodd" clip-rule="evenodd" d="M54.0021 53.9998L38.4744 99.1357L37.0947 98.6442L54.0021 53.9998Z" fill="#3173FF"/>
<path fill-rule="evenodd" clip-rule="evenodd" d="M54.0006 53.9998L37.3686 98.7415L36.0024 98.215L54.0006 53.9998Z" fill="#3073FF"/>
<path fill-rule="evenodd" clip-rule="evenodd" d="M54.0006 53.9998L36.2751 98.3203L34.9224 97.7587L54.0006 53.9998Z" fill="#2F72FF"/>
<path fill-rule="evenodd" clip-rule="evenodd" d="M54.0011 53.9998L35.1929 97.8721L33.8564 97.2781L54.0011 53.9998Z" fill="#2E71FF"/>
<path fill-rule="evenodd" clip-rule="evenodd" d="M54.0002 53.9998L34.1228 97.3969L32.7998 96.7705L54.0002 53.9998Z" fill="#2D71FF"/>
<path fill-rule="evenodd" clip-rule="evenodd" d="M54.0012 53.9998L33.0654 96.8974L31.7559 96.2386L54.0012 53.9998Z" fill="#2C70FF"/>
<path fill-rule="evenodd" clip-rule="evenodd" d="M54.0015 53.9998L32.0181 96.3682L30.7275 95.6797L54.0015 53.9998Z" fill="#2B6FFF"/>
<path fill-rule="evenodd" clip-rule="evenodd" d="M54.0009 53.9998L30.9861 95.8174L29.709 95.0965L54.0009 53.9998Z" fill="#2A6EFF"/>
<path fill-rule="evenodd" clip-rule="evenodd" d="M54.0018 53.9998L29.9664 95.2396L28.7109 94.4863L54.0018 53.9998Z" fill="#296EFF"/>
<path fill-rule="evenodd" clip-rule="evenodd" d="M54.0008 53.9998L28.961 94.6375L27.7217 93.8545L54.0008 53.9998Z" fill="#286DFF"/>
<path fill-rule="evenodd" clip-rule="evenodd" d="M54.0008 53.9998L27.9701 94.0111L26.7524 93.1957L54.0008 53.9998Z" fill="#276CFF"/>
<path fill-rule="evenodd" clip-rule="evenodd" d="M54.0013 53.9998L26.9959 93.3604L25.7998 92.518L54.0013 53.9998Z" fill="#266CFF"/>
<path fill-rule="evenodd" clip-rule="evenodd" d="M54.0012 53.9998L26.04 92.6854L24.8628 91.8133L54.0012 53.9998Z" fill="#256BFF"/>
<path fill-rule="evenodd" clip-rule="evenodd" d="M54.0015 53.9998L25.098 91.9888L23.9424 91.087L54.0015 53.9998Z" fill="#246AFF"/>
<path fill-rule="evenodd" clip-rule="evenodd" d="M54.0021 53.9998L24.1752 91.2679L23.0439 90.3391L54.0021 53.9998Z" fill="#236AFF"/>
<path fill-rule="evenodd" clip-rule="evenodd" d="M54.0008 53.9998L23.2694 90.5227L22.1597 89.5669L54.0008 53.9998Z" fill="#2269FF"/>
<path fill-rule="evenodd" clip-rule="evenodd" d="M54.0015 53.9998L22.3818 89.7586L21.2964 88.7758L54.0015 53.9998Z" fill="#2168FF"/>
<path fill-rule="evenodd" clip-rule="evenodd" d="M54.0011 53.9998L21.5147 88.9729L20.4536 87.9631L54.0011 53.9998Z" fill="#2068FF"/>
<path fill-rule="evenodd" clip-rule="evenodd" d="M54.0004 53.9998L20.6662 88.1629L19.6294 87.1288L54.0004 53.9998Z" fill="#1F67FF"/>
<path fill-rule="evenodd" clip-rule="evenodd" d="M54.0005 53.9998L19.8347 87.334L18.8276 86.2756L54.0005 53.9998Z" fill="#1E66FF"/>
<path fill-rule="evenodd" clip-rule="evenodd" d="M54.0013 53.9998L19.0282 86.4862L18.0454 85.4008L54.0013 53.9998Z" fill="#1D66FF"/>
<path fill-rule="evenodd" clip-rule="evenodd" d="M54.0002 53.9998L18.2414 85.6195L17.2856 84.5098L54.0002 53.9998Z" fill="#1C65FF"/>
<path fill-rule="evenodd" clip-rule="evenodd" d="M54.001 53.9998L17.4781 84.7312L16.5493 83.5999L54.001 53.9998Z" fill="#1B64FF"/>
<path fill-rule="evenodd" clip-rule="evenodd" d="M54.0031 53.9998L16.735 83.8267L15.8359 82.6711L54.0031 53.9998Z" fill="#1A64FF"/>
<path fill-rule="evenodd" clip-rule="evenodd" d="M54.0007 53.9998L16.0117 82.9033L15.1396 81.7261L54.0007 53.9998Z" fill="#1963FF"/>
<path fill-rule="evenodd" clip-rule="evenodd" d="M54.0026 53.9998L15.317 81.961L14.4746 80.7649L54.0026 53.9998Z" fill="#1862FF"/>
<path fill-rule="evenodd" clip-rule="evenodd" d="M54.0009 53.9998L14.6403 81.0052L13.8276 79.7848L54.0009 53.9998Z" fill="#1762FF"/>
<path fill-rule="evenodd" clip-rule="evenodd" d="M54.0013 53.9998L13.99 80.0305L13.207 78.7912L54.0013 53.9998Z" fill="#1661FF"/>
<path fill-rule="evenodd" clip-rule="evenodd" d="M54.0004 53.9998L13.3627 79.0396L12.6094 77.784L54.0004 53.9998Z" fill="#1560FF"/>
<path fill-rule="evenodd" clip-rule="evenodd" d="M54.0007 53.9998L12.7609 78.0352L12.04 76.7608L54.0007 53.9998Z" fill="#1460FF"/>
<path fill-rule="evenodd" clip-rule="evenodd" d="M54.0005 53.9998L12.1829 77.0146L11.4917 75.724L54.0005 53.9998Z" fill="#135FFF"/>
<path fill-rule="evenodd" clip-rule="evenodd" d="M54.0008 53.9998L11.6297 75.9832L10.9736 74.6737L54.0008 53.9998Z" fill="#125EFF"/>
<path fill-rule="evenodd" clip-rule="evenodd" d="M54.0003 53.9998L11.1027 74.9356L10.479 73.6126L54.0003 53.9998Z" fill="#115EFF"/>
<path fill-rule="evenodd" clip-rule="evenodd" d="M54.0009 53.9998L10.6038 73.8772L10.0098 72.538L54.0009 53.9998Z" fill="#105DFF"/>
<path fill-rule="evenodd" clip-rule="evenodd" d="M53.9998 53.9998L10.1275 72.8053L9.56592 71.4526L53.9998 53.9998Z" fill="#0F5CFF"/>
<path fill-rule="evenodd" clip-rule="evenodd" d="M54.0008 53.9998L9.68031 71.7226L9.15381 70.3564L54.0008 53.9998Z" fill="#0E5BFF"/>
<path fill-rule="evenodd" clip-rule="evenodd" d="M54.0014 53.9998L9.25972 70.6318L8.76562 69.2521L54.0014 53.9998Z" fill="#0D5BFF"/>
<path fill-rule="evenodd" clip-rule="evenodd" d="M54.0007 53.9998L8.86206 69.5275L8.40576 68.137L54.0007 53.9998Z" fill="#0C5AFF"/>
<path fill-rule="evenodd" clip-rule="evenodd" d="M54.0025 53.9998L8.49665 68.4151L8.07275 67.0138L54.0025 53.9998Z" fill="#0B59FF"/>
<path fill-rule="evenodd" clip-rule="evenodd" d="M54.0019 53.9998L8.15589 67.2946L7.76709 65.8825L54.0019 53.9998Z" fill="#0A59FF"/>
<path fill-rule="evenodd" clip-rule="evenodd" d="M54.0012 53.9998L7.84468 66.166L7.48828 64.7431L54.0012 53.9998Z" fill="#0958FF"/>
<path fill-rule="evenodd" clip-rule="evenodd" d="M54.0015 53.9998L7.55883 65.0293L7.24023 63.601L54.0015 53.9998Z" fill="#0857FF"/>
<path fill-rule="evenodd" clip-rule="evenodd" d="M54.0013 53.9998L7.30205 63.8845L7.01855 62.4481L54.0013 53.9998Z" fill="#0757FF"/>
<path fill-rule="evenodd" clip-rule="evenodd" d="M54.0008 53.9998L7.07483 62.737L6.82373 61.2952L54.0008 53.9998Z" fill="#0656FF"/>
<path fill-rule="evenodd" clip-rule="evenodd" d="M54.002 53.9998L6.87616 61.5814L6.66016 60.1342L54.002 53.9998Z" fill="#0555FF"/>
<path fill-rule="evenodd" clip-rule="evenodd" d="M54.0007 53.9998L6.70213 60.4231L6.52393 58.9705L54.0007 53.9998Z" fill="#0455FF"/>
<path fill-rule="evenodd" clip-rule="evenodd" d="M54.0018 53.9998L6.56009 59.2594L6.41699 57.8041L54.0018 53.9998Z" fill="#0354FF"/>
<path fill-rule="evenodd" clip-rule="evenodd" d="M54.0017 53.9998L6.44394 58.0957L6.33594 56.635L54.0017 53.9998Z" fill="#0253FF"/>
<path fill-rule="evenodd" clip-rule="evenodd" d="M54.001 53.9998L6.35682 56.9266L6.28662 55.4632L54.001 53.9998Z" fill="#0153FF"/>
<path fill-rule="evenodd" clip-rule="evenodd" d="M54.0006 53.9998L6.29975 55.7575L6.26465 54.2914L54.0006 53.9998Z" fill="#0052FF"/>
<path fill-rule="evenodd" clip-rule="evenodd" d="M54.0016 53.9997L6.271 54.5856V53.4138L54.0016 53.9997Z" fill="white"/>
</g>
</g>
<defs>
<clipPath id="clip0_1743_20650">
<rect width="79.2" height="79.2" fill="white" transform="translate(14.3999 14.3999)"/>
</clipPath>
</defs>
</svg>
