<svg width="37" height="37" viewBox="0 0 37 37" fill="none" xmlns="http://www.w3.org/2000/svg">
<g clip-path="url(#clip0_6241_27543)">
<path fill-rule="evenodd" clip-rule="evenodd" d="M12.7162 34.8526H0.883515V33.5592C0.883515 32.9639 1.36612 32.4814 1.9614 32.4814H2.17695V31.1879C2.17695 30.5927 2.6595 30.1101 3.25478 30.1101V10.9245H2.06917L0.667969 6.18193H6.91947V1.43945H30.4165V6.18193H36.668L35.2668 10.9245H34.0812V30.1101C34.6764 30.1101 35.159 30.5927 35.159 31.1879V32.4814H35.3745C35.9698 32.4814 36.4524 32.9639 36.4524 33.5592V34.8526H24.6331V33.5592C24.6331 32.9639 25.1157 32.4814 25.7109 32.4814H25.9265V31.1879C25.9265 30.605 26.3892 30.1302 26.9674 30.1107V19.5472C26.5861 15.3172 22.9972 12.0023 18.668 12.0023C14.3387 12.0023 10.7498 15.3172 10.3686 19.5472V30.1104C10.9529 30.123 11.4227 30.6006 11.4227 31.1879V31.8347V32.4814H11.6383C12.2336 32.4814 12.7162 32.9639 12.7162 33.5592V34.8526Z" fill="black"/>
</g>
<defs>
<clipPath id="clip0_6241_27543">
<rect width="36" height="36" fill="white" transform="translate(0.667969 0.145996)"/>
</clipPath>
</defs>
</svg>
