<svg width="402" height="14" viewBox="0 0 402 14" fill="none" xmlns="http://www.w3.org/2000/svg">
<rect width="161" height="14" transform="matrix(1 0 0 -1 39.9358 13.9998)" fill="#0B35F1"/>
<rect width="3.07693" height="14" transform="matrix(1 0 0 -1 -0.0639648 13.9998)" fill="#FF5800"/>
<rect width="12.3077" height="14" transform="matrix(1 0 0 -1 3.01286 13.9998)" fill="white"/>
<rect width="12.3077" height="14" transform="matrix(1 0 0 -1 15.3207 13.9998)" fill="#D1D0D4"/>
<rect width="12.3077" height="14" transform="matrix(1 0 0 -1 27.6282 13.9998)" fill="#181818"/>
<rect width="160.758" height="14" transform="matrix(1 0 0 -1 200.936 13.9998)" fill="#FF5800"/>
<rect width="12.3077" height="14" transform="matrix(1 0 0 -1 361.694 13.9998)" fill="#181818"/>
<rect width="12.3077" height="14" transform="matrix(1 0 0 -1 374.002 13.9998)" fill="#D7D5CA"/>
<rect width="12.3077" height="14" transform="matrix(1 0 0 -1 386.309 13.9998)" fill="white"/>
<rect width="3.07692" height="14" transform="matrix(1 0 0 -1 398.617 13.9998)" fill="#0B35F1"/>
<path d="M257.695 4.13399L260.047 4.132L260.097 4.18096L260.109 4.89952L260.061 4.94855L258.526 4.94985L258.476 4.9009L258.428 4.94993L258.478 4.99888L258.547 8.98362L258.498 9.03265L258.548 9.08161L258.596 9.03257L260.132 9.03127L260.182 9.08023L260.194 9.79879L260.146 9.84782L257.794 9.84981L257.744 9.80086L257.647 4.18303L257.695 4.13399ZM260.159 4.94847L260.878 4.94786L260.928 4.99681L260.94 5.71537L260.892 5.7644L260.173 5.76501L260.123 5.71606L260.111 4.9975L260.159 4.94847ZM260.99 5.76432L261.709 5.76371L261.758 5.81267L261.799 8.16432L261.751 8.21335L261.032 8.21396L260.982 8.16501L260.942 5.81336L260.99 5.76432ZM260.216 8.21465L260.934 8.21404L260.984 8.26299L260.997 8.98155L260.948 9.03058L260.23 9.03119L260.18 8.98224L260.167 8.26368L260.216 8.21465Z" fill="white"/>
<path d="M252.138 4.13875L252.857 4.13815L252.907 4.1871L252.99 8.98838L252.942 9.03742L252.992 9.08637L253.04 9.03733L256.208 9.03466L256.258 9.08361L256.271 9.80217L256.222 9.8512L252.237 9.85457L252.187 9.80562L252.09 4.18779L252.138 4.13875Z" fill="white"/>
<path d="M246.99 4.14305L250.159 4.14037L250.209 4.18932L250.221 4.90788L250.173 4.95691L249.046 4.95787L248.996 4.90892L248.948 4.95795L248.998 5.0069L249.067 8.99164L249.019 9.04067L249.068 9.08963L249.117 9.04059L250.652 9.03929L250.702 9.08825L250.714 9.8068L250.666 9.85584L246.681 9.85921L246.631 9.81025L246.618 9.0917L246.667 9.04266L248.202 9.04136L248.252 9.09032L248.3 9.04128L248.25 8.99233L248.181 5.00759L248.229 4.95856L248.18 4.90961L248.131 4.95864L247.004 4.95959L246.955 4.91064L246.942 4.19208L246.99 4.14305Z" fill="white"/>
<path d="M244.292 4.14527L245.011 4.14466L245.061 4.19361L245.143 8.9949L245.095 9.04393L244.377 9.04454L244.327 8.99559L244.244 4.1943L244.292 4.14527ZM241.025 4.14803L241.744 4.14742L241.794 4.19637L241.877 8.99766L241.829 9.04669L241.11 9.0473L241.06 8.99835L240.977 4.19706L241.025 4.14803ZM241.927 9.04661L244.279 9.04462L244.328 9.09357L244.341 9.81213L244.293 9.86117L241.941 9.86315L241.891 9.8142L241.878 9.09564L241.927 9.04661Z" fill="white"/>
<path d="M235.469 4.15291L238.638 4.15024L238.687 4.19919L238.7 4.91775L238.652 4.96678L236.3 4.96877L236.25 4.91982L236.202 4.96885L236.252 5.0178L236.278 6.55291L236.23 6.60194L236.28 6.65089L236.328 6.60186L238.68 6.59987L238.73 6.64882L238.742 7.36738L238.694 7.41642L236.342 7.4184L236.292 7.36945L236.244 7.41849L236.294 7.46744L236.32 9.00254L236.272 9.05158L236.322 9.10053L236.37 9.05149L238.722 9.04951L238.772 9.09846L238.784 9.81702L238.736 9.86605L235.568 9.86873L235.518 9.81978L235.421 4.20195L235.469 4.15291ZM238.75 4.9667L239.468 4.96609L239.518 5.01504L239.545 6.55015L239.497 6.59918L238.778 6.59979L238.728 6.55084L238.702 5.01573L238.75 4.9667ZM238.792 7.41633L239.511 7.41573L239.561 7.46468L239.587 8.99978L239.539 9.04882L238.82 9.04942L238.77 9.00047L238.744 7.46537L238.792 7.41633Z" fill="white"/>
<path d="M347.344 4.51841C347.458 4.40451 347.643 4.40451 347.757 4.51841L349.613 6.37469C349.726 6.48851 349.726 6.67266 349.613 6.78648L347.757 8.64276C347.643 8.75666 347.458 8.75666 347.344 8.64276C347.23 8.52885 347.23 8.34405 347.344 8.23016L348.702 6.87193H276.206V6.28924H348.702L347.344 4.93101C347.23 4.81712 347.23 4.63232 347.344 4.51841Z" fill="white"/>
<path d="M164.81 4.13123L165.528 4.13062L165.578 4.17958L165.675 9.79741L165.627 9.84644L164.908 9.84705L164.859 9.7981L164.79 5.81336L164.838 5.76432L164.788 5.71537L164.74 5.7644L164.021 5.76501L163.971 5.71606L163.959 4.9975L164.007 4.94847L164.726 4.94786L164.776 4.99681L164.824 4.94778L164.774 4.89883L164.761 4.18027L164.81 4.13123ZM161.543 4.13399L162.262 4.13338L162.312 4.18234L162.324 4.9009L162.276 4.94993L162.326 4.99888L162.374 4.94985L163.092 4.94924L163.142 4.99819L163.155 5.71675L163.107 5.76578L162.388 5.76639L162.338 5.71744L162.29 5.76647L162.34 5.81543L162.409 9.80017L162.36 9.8492L161.642 9.84981L161.592 9.80086L161.495 4.18303L161.543 4.13399ZM163.205 5.7657L163.923 5.76509L163.973 5.81405L164 7.34915L163.951 7.39818L163.233 7.39879L163.183 7.34984L163.156 5.81474L163.205 5.7657Z" fill="white"/>
<path d="M157.62 4.13737L158.339 4.13677L158.388 4.18572L158.401 4.90428L158.353 4.95331L157.634 4.95392L157.584 4.90497L157.572 4.18641L157.62 4.13737ZM158.451 4.95323L159.169 4.95262L159.219 5.00157L159.232 5.72013L159.183 5.76917L158.465 5.76977L158.415 5.72082L158.402 5.00226L158.451 4.95323ZM156.817 4.95461L157.536 4.954L157.586 5.00295L157.598 5.72151L157.55 5.77055L156.831 5.77115L156.782 5.7222L156.769 5.00364L156.817 4.95461ZM159.281 5.76908L160 5.76848L160.05 5.81743L160.119 9.80217L160.071 9.8512L159.352 9.85181L159.302 9.80286L159.268 7.85948L159.317 7.81045L159.267 7.76149L159.219 7.81053L156.867 7.81252L156.817 7.76356L156.769 7.8126L156.818 7.86155L156.852 9.80493L156.804 9.85396L156.085 9.85457L156.035 9.80562L155.967 5.82088L156.015 5.77184L156.733 5.77124L156.783 5.82019L156.803 6.94702L156.755 6.99605L156.804 7.045L156.853 6.99597L159.205 6.99398L159.254 7.04293L159.303 6.9939L159.253 6.94495L159.233 5.81812L159.281 5.76908Z" fill="white"/>
<path d="M150.43 4.14339L154.415 4.14002L154.465 4.18898L154.477 4.90754L154.429 4.95657L151.261 4.95925L151.211 4.9103L151.163 4.95933L151.213 5.00828L151.239 6.54338L151.191 6.59242L151.241 6.64137L151.289 6.59234L153.641 6.59035L153.691 6.6393L153.703 7.35786L153.655 7.40689L151.303 7.40888L151.253 7.35993L151.205 7.40896L151.255 7.45792L151.281 8.99302L151.233 9.04205L151.283 9.09101L151.331 9.04197L154.5 9.03929L154.55 9.08825L154.562 9.8068L154.514 9.85584L150.529 9.85921L150.479 9.81025L150.382 4.19243L150.43 4.14339Z" fill="white"/>
<path d="M144.873 4.14803L148.042 4.14535L148.092 4.1943L148.104 4.91286L148.056 4.9619L145.704 4.96389L145.654 4.91493L145.606 4.96397L145.656 5.01292L145.683 6.54802L145.634 6.59706L145.684 6.64601L145.732 6.59697L148.084 6.59499L148.134 6.64394L148.147 7.3625L148.099 7.41153L147.38 7.41214L147.33 7.36319L147.282 7.41222L147.332 7.46117L147.344 8.17973L147.296 8.22877L146.577 8.22937L146.527 8.18042L146.515 7.46186L146.563 7.41283L146.513 7.36388L146.465 7.41291L145.747 7.41352L145.697 7.36457L145.649 7.4136L145.698 7.46255L145.739 9.8142L145.691 9.86324L144.972 9.86384L144.922 9.81489L144.825 4.19706L144.873 4.14803ZM148.154 4.96182L148.873 4.96121L148.923 5.01016L148.949 6.54526L148.901 6.5943L148.182 6.59491L148.133 6.54595L148.106 5.01085L148.154 4.96182ZM147.394 8.22868L148.113 8.22808L148.162 8.27703L148.175 8.99559L148.127 9.04462L147.408 9.04523L147.358 8.99628L147.346 8.27772L147.394 8.22868ZM148.225 9.04454L148.943 9.04393L148.993 9.09288L149.006 9.81144L148.957 9.86048L148.239 9.86109L148.189 9.81213L148.177 9.09357L148.225 9.04454Z" fill="white"/>
<path d="M139.317 4.15291L141.669 4.15093L141.719 4.19988L141.731 4.91844L141.683 4.96747L140.148 4.96877L140.098 4.91982L140.05 4.96885L140.099 5.0178L140.168 9.00254L140.12 9.05158L140.17 9.10053L140.218 9.05149L141.753 9.0502L141.803 9.09915L141.816 9.81771L141.768 9.86674L139.416 9.86873L139.366 9.81978L139.269 4.20195L139.317 4.15291ZM141.781 4.96739L142.5 4.96678L142.549 5.01573L142.562 5.73429L142.514 5.78333L141.795 5.78393L141.745 5.73498L141.733 5.01642L141.781 4.96739ZM142.612 5.78324L143.33 5.78264L143.38 5.83159L143.421 8.18324L143.373 8.23227L142.654 8.23288L142.604 8.18393L142.564 5.83228L142.612 5.78324ZM141.837 8.23357L142.556 8.23296L142.606 8.28191L142.618 9.00047L142.57 9.04951L141.851 9.05011L141.802 9.00116L141.789 8.2826L141.837 8.23357Z" fill="white"/>
<path d="M49.8749 4.51841C49.761 4.40451 49.5762 4.40451 49.4623 4.51841L47.606 6.37469C47.4926 6.48851 47.4926 6.67266 47.606 6.78648L49.4623 8.64276C49.5762 8.75666 49.761 8.75666 49.8749 8.64276C49.9888 8.52885 49.9888 8.34405 49.8749 8.23016L48.5167 6.87193H121.013V6.28924H48.5167L49.8749 4.93101C49.9888 4.81712 49.9888 4.63232 49.8749 4.51841Z" fill="white"/>
<line x1="200.935" y1="-0.000244167" x2="200.935" y2="13.9998" stroke="black" stroke-width="1.44"/>
</svg>
