<svg width="1729" height="20" viewBox="0 0 1729 20" fill="none" xmlns="http://www.w3.org/2000/svg">
<rect width="329.143" height="20" transform="matrix(1 0 0 -1 864.758 19.9998)" fill="#FF5800"/>
<rect width="329.143" height="20" transform="matrix(1 0 0 -1 535.615 19.9998)" fill="#0B35F1"/>
<rect width="41.1428" height="20" transform="matrix(1 0 0 -1 0.757812 19.9998)" fill="#FF5800"/>
<rect width="164.571" height="20" transform="matrix(1 0 0 -1 41.9004 19.9998)" fill="white"/>
<rect width="164.571" height="20" transform="matrix(1 0 0 -1 206.473 19.9998)" fill="#D1D0D4"/>
<rect width="164.571" height="20" transform="matrix(1 0 0 -1 371.043 19.9998)" fill="#181818"/>
<rect width="164.571" height="20" transform="matrix(1 0 0 -1 1193.9 19.9998)" fill="#181818"/>
<rect width="164.571" height="20" transform="matrix(1 0 0 -1 1358.47 19.9998)" fill="#D7D5CA"/>
<rect width="164.571" height="20" transform="matrix(1 0 0 -1 1523.04 19.9998)" fill="white"/>
<rect width="41.1428" height="20" transform="matrix(1 0 0 -1 1687.62 19.9998)" fill="#0B35F1"/>
<path d="M786.069 5.2667L790.101 5.26329L790.187 5.34721L790.208 6.57902L790.126 6.66308L787.494 6.66531L787.408 6.58139L787.326 6.66545L787.411 6.74936L787.529 13.5803L787.446 13.6644L787.532 13.7483L787.614 13.6643L790.246 13.662L790.332 13.746L790.353 14.9778L790.271 15.0618L786.239 15.0652L786.153 14.9813L785.987 5.35076L786.069 5.2667ZM790.294 6.66294L791.526 6.6619L791.611 6.74582L791.632 7.97763L791.55 8.06169L790.318 8.06273L790.232 7.97881L790.211 6.747L790.294 6.66294ZM791.718 8.06155L792.95 8.06051L793.035 8.14442L793.105 12.1758L793.022 12.2599L791.79 12.2609L791.705 12.177L791.635 8.14561L791.718 8.06155ZM790.39 12.2621L791.622 12.2611L791.708 12.345L791.729 13.5768L791.646 13.6609L790.414 13.6619L790.329 13.578L790.308 12.3462L790.39 12.2621ZM795.595 5.25865L801.027 5.25406L801.112 5.33798L801.134 6.56979L801.051 6.65385L797.019 6.65726L796.934 6.57334L796.851 6.6574L796.936 6.74132L796.982 9.37292L796.899 9.45698L796.985 9.5409L797.067 9.45684L801.099 9.45343L801.185 9.53735L801.206 10.7692L801.124 10.8532L799.892 10.8543L799.806 10.7703L799.724 10.8544L799.809 10.9383L799.83 12.1701L799.748 12.2542L798.516 12.2552L798.43 12.1713L798.409 10.9395L798.492 10.8554L798.406 10.7715L798.324 10.8556L797.092 10.8566L797.006 10.7727L796.924 10.8568L797.009 10.9407L797.079 14.9721L796.996 15.0561L795.764 15.0572L795.679 14.9733L795.512 5.34271L795.595 5.25865ZM801.219 6.65371L802.451 6.65267L802.536 6.73658L802.582 9.36819L802.499 9.45225L801.267 9.45329L801.182 9.36938L801.136 6.73777L801.219 6.65371ZM799.916 12.2541L801.148 12.253L801.233 12.3369L801.254 13.5687L801.172 13.6528L799.94 13.6538L799.854 13.5699L799.833 12.3381L799.916 12.2541ZM801.34 13.6527L802.572 13.6516L802.657 13.7355L802.679 14.9674L802.596 15.0514L801.364 15.0525L801.279 14.9685L801.257 13.7367L801.34 13.6527ZM805.12 5.2506L811.952 5.24483L812.038 5.32875L812.059 6.56056L811.976 6.64462L806.544 6.64921L806.459 6.56529L806.376 6.64935L806.462 6.73327L806.507 9.36488L806.425 9.44894L806.51 9.53285L806.593 9.44879L810.625 9.44539L810.71 9.5293L810.732 10.7611L810.649 10.8452L806.617 10.8486L806.532 10.7647L806.449 10.8487L806.534 10.9326L806.58 13.5643L806.497 13.6483L806.583 13.7322L806.665 13.6482L812.097 13.6436L812.183 13.7275L812.204 14.9593L812.121 15.0434L805.289 15.0491L805.204 14.9652L805.038 5.33466L805.12 5.2506ZM817.446 5.24019L818.678 5.23915L818.763 5.32306L818.784 6.55488L818.702 6.63894L817.47 6.63998L817.384 6.55606L817.363 5.32425L817.446 5.24019ZM818.87 6.6388L820.102 6.63776L820.187 6.72167L820.209 7.95349L820.126 8.03755L818.894 8.03859L818.809 7.95467L818.787 6.72286L818.87 6.6388ZM816.07 6.64116L817.302 6.64012L817.387 6.72404L817.409 7.95585L817.326 8.03991L816.094 8.04095L816.009 7.95704L815.987 6.72522L816.07 6.64116ZM820.294 8.03741L821.526 8.03637L821.612 8.12028L821.73 14.9513L821.647 15.0353L820.415 15.0364L820.33 14.9524L820.272 11.6209L820.355 11.5369L820.269 11.453L820.187 11.537L816.155 11.5404L816.069 11.4565L815.987 11.5406L816.072 11.6245L816.13 14.956L816.047 15.0401L814.815 15.0411L814.73 14.9572L814.612 8.1262L814.694 8.04214L815.926 8.0411L816.012 8.12501L816.045 10.0567L815.962 10.1408L816.048 10.2247L816.13 10.1406L820.162 10.1372L820.248 10.2212L820.33 10.1371L820.245 10.0532L820.212 8.12146L820.294 8.03741ZM829.771 5.22978L831.003 5.22873L831.089 5.31265L831.255 14.9432L831.172 15.0273L829.94 15.0283L829.855 14.9444L829.737 8.11342L829.82 8.02936L829.734 7.94544L829.652 8.0295L828.42 8.03054L828.334 7.94662L828.313 6.71481L828.395 6.63075L829.627 6.62971L829.713 6.71363L829.795 6.62957L829.71 6.54565L829.689 5.31383L829.771 5.22978ZM824.171 5.23451L825.403 5.23347L825.489 5.31738L825.51 6.5492L825.427 6.63326L825.513 6.71717L825.595 6.63312L826.827 6.63207L826.913 6.71599L826.934 7.94781L826.852 8.03187L825.62 8.03291L825.534 7.94899L825.452 8.03305L825.537 8.11697L825.655 14.9479L825.572 15.032L824.34 15.033L824.255 14.9491L824.089 5.31857L824.171 5.23451ZM827.02 8.03172L828.252 8.03068L828.337 8.1146L828.382 10.7462L828.3 10.8303L827.068 10.8313L826.982 10.7474L826.937 8.11578L827.02 8.03172Z" fill="white"/>
<path d="M897.77 5.2667L903.202 5.26211L903.287 5.34602L903.308 6.57784L903.226 6.6619L899.194 6.66531L899.108 6.58139L899.026 6.66545L899.111 6.74936L899.157 9.38097L899.074 9.46503L899.16 9.54895L899.242 9.46489L903.274 9.46148L903.36 9.5454L903.381 10.7772L903.298 10.8613L899.266 10.8647L899.181 10.7808L899.098 10.8648L899.184 10.9487L899.229 13.5803L899.147 13.6644L899.232 13.7483L899.315 13.6643L903.347 13.6609L903.432 13.7448L903.453 14.9766L903.371 15.0606L897.939 15.0652L897.853 14.9813L897.687 5.35076L897.77 5.2667ZM903.394 6.66176L904.626 6.66072L904.711 6.74463L904.757 9.37624L904.674 9.4603L903.442 9.46134L903.357 9.37742L903.311 6.74582L903.394 6.66176ZM903.466 10.8611L904.698 10.8601L904.784 10.944L904.829 13.5756L904.747 13.6597L903.515 13.6607L903.429 13.5768L903.384 10.9452L903.466 10.8611ZM912.895 5.25392L914.127 5.25288L914.212 5.33679L914.355 13.5676L914.272 13.6516L913.04 13.6527L912.955 13.5687L912.812 5.33798L912.895 5.25392ZM907.295 5.25865L908.527 5.25761L908.612 5.34153L908.755 13.5723L908.672 13.6564L907.44 13.6574L907.355 13.5735L907.212 5.34271L907.295 5.25865ZM908.84 13.6562L912.872 13.6528L912.957 13.7367L912.979 14.9685L912.896 15.0526L908.864 15.056L908.779 14.9721L908.757 13.7403L908.84 13.6562ZM917.52 5.25001L922.952 5.24542L923.038 5.32934L923.059 6.56115L922.977 6.64521L921.045 6.64684L920.959 6.56293L920.877 6.64699L920.962 6.7309L921.08 13.5619L920.998 13.6459L921.083 13.7299L921.166 13.6458L923.798 13.6436L923.883 13.7275L923.904 14.9593L923.822 15.0434L916.99 15.0491L916.904 14.9652L916.883 13.7334L916.966 13.6493L919.598 13.6471L919.683 13.731L919.766 13.647L919.68 13.5631L919.562 6.73209L919.645 6.64803L919.559 6.56411L919.477 6.64817L917.545 6.6498L917.459 6.56589L917.438 5.33407L917.52 5.25001ZM926.346 5.24255L927.578 5.24151L927.663 5.32543L927.806 13.5562L927.723 13.6403L927.808 13.7242L927.891 13.6401L933.323 13.6355L933.408 13.7194L933.43 14.9513L933.347 15.0353L926.515 15.0411L926.43 14.9572L926.263 5.32661L926.346 5.24255ZM935.871 5.23451L939.903 5.2311L939.989 5.31502L940.01 6.54683L939.928 6.63089L937.296 6.63312L937.21 6.5492L937.128 6.63326L937.213 6.71717L937.331 13.5482L937.248 13.6322L937.334 13.7161L937.416 13.6321L940.048 13.6298L940.134 13.7138L940.155 14.9456L940.073 15.0296L936.041 15.033L935.955 14.9491L935.789 5.31857L935.871 5.23451ZM940.096 6.63075L941.328 6.62971L941.413 6.71363L941.434 7.94544L941.352 8.0295L940.12 8.03054L940.034 7.94662L940.013 6.71481L940.096 6.63075ZM941.52 8.02936L942.752 8.02832L942.837 8.11223L942.907 12.1436L942.824 12.2277L941.592 12.2287L941.507 12.1448L941.437 8.11342L941.52 8.02936ZM940.192 12.2299L941.424 12.2289L941.51 12.3128L941.531 13.5446L941.448 13.6287L940.216 13.6297L940.131 13.5458L940.11 12.314L940.192 12.2299Z" fill="white"/>
<path d="M1093.45 10.3533C1093.65 10.158 1093.65 9.84146 1093.45 9.6462L1090.27 6.46422C1090.08 6.26896 1089.76 6.26896 1089.57 6.46422C1089.37 6.65948 1089.37 6.97607 1089.57 7.17133L1092.39 9.99976L1089.57 12.8282C1089.37 13.0234 1089.37 13.34 1089.57 13.5353C1089.76 13.7306 1090.08 13.7306 1090.27 13.5353L1093.45 10.3533ZM967.615 10.4998H1093.1V9.49976H967.615V10.4998Z" fill="white"/>
<path d="M628.861 10.3533C628.666 10.158 628.666 9.84146 628.861 9.6462L632.043 6.46422C632.238 6.26896 632.555 6.26896 632.75 6.46422C632.945 6.65948 632.945 6.97607 632.75 7.17133L629.922 9.99976L632.75 12.8282C632.945 13.0234 632.945 13.34 632.75 13.5353C632.555 13.7306 632.238 13.7306 632.043 13.5353L628.861 10.3533ZM754.7 10.4998H629.215V9.49976H754.7V10.4998Z" fill="white"/>
<line x1="864.757" y1="-0.000488319" x2="864.757" y2="19.9995" stroke="black" stroke-width="2.05714"/>
</svg>
