<?xml version="1.0" encoding="UTF-8"?>
<svg xmlns="http://www.w3.org/2000/svg" viewBox="0 0 600 780" role="img" aria-labelledby="dadPortraitTitle dadPortraitDesc">
  <title id="dadPortraitTitle">eDad portrait</title>
  <desc id="dadPortraitDesc">A warm illustrated dad with greying hair, glasses, stubble, and a subtle gold rim light on a dark study backdrop.</desc>
  <defs>
    <radialGradient id="portraitBg" cx="42%" cy="26%" r="76%">
      <stop offset="0" stop-color="#262630"/>
      <stop offset="0.42" stop-color="#1c1c22"/>
      <stop offset="1" stop-color="#0b0b0d"/>
    </radialGradient>
    <radialGradient id="portraitGlow" cx="21%" cy="11%" r="62%">
      <stop offset="0" stop-color="#c79a3f" stop-opacity="0.44"/>
      <stop offset="0.44" stop-color="#8a6a24" stop-opacity="0.16"/>
      <stop offset="1" stop-color="#0b0b0d" stop-opacity="0"/>
    </radialGradient>
    <linearGradient id="faceShade" x1="196" y1="168" x2="418" y2="464" gradientUnits="userSpaceOnUse">
      <stop offset="0" stop-color="#ebe6d9"/>
      <stop offset="0.58" stop-color="#ebe6d9" stop-opacity="0.91"/>
      <stop offset="1" stop-color="#8a8579" stop-opacity="0.44"/>
    </linearGradient>
    <linearGradient id="goldRim" x1="186" y1="124" x2="390" y2="478" gradientUnits="userSpaceOnUse">
      <stop offset="0" stop-color="#c79a3f" stop-opacity="0.92"/>
      <stop offset="0.58" stop-color="#c79a3f" stop-opacity="0.34"/>
      <stop offset="1" stop-color="#8a6a24" stop-opacity="0"/>
    </linearGradient>
    <filter id="softShadow" x="-20%" y="-20%" width="140%" height="150%">
      <feDropShadow dx="0" dy="24" stdDeviation="24" flood-color="#0b0b0d" flood-opacity="0.68"/>
    </filter>
  </defs>

  <rect width="600" height="780" rx="28" fill="url(#portraitBg)"/>
  <rect width="600" height="780" rx="28" fill="url(#portraitGlow)"/>
  <path d="M66 679c77-47 156-69 238-66 87 3 164 27 230 73v94H66z" fill="#0b0b0d" opacity="0.35"/>

  <g filter="url(#softShadow)">
    <path d="M88 780c10-102 57-168 138-199 45-17 102-24 155-9 79 22 126 91 136 208z" fill="#1c1c22"/>
    <path d="M103 780c11-75 46-126 106-153 33-15 61-21 91-21 36 0 75 9 108 29 56 35 80 85 91 145z" fill="#262630" opacity="0.72"/>
    <path d="M223 596l77 128 81-128c-52 21-106 21-158 0z" fill="#ebe6d9" opacity="0.9"/>
    <path d="M245 623l55 74 57-75c-38 12-75 12-112 1z" fill="#1c1c22" opacity="0.58"/>
    <path d="M207 628c27 58 57 108 93 152H129c8-69 35-120 78-152z" fill="#1c1c22"/>
    <path d="M393 628c-27 58-57 108-93 152h171c-8-69-35-120-78-152z" fill="#1c1c22"/>
    <path d="M216 613c22 46 47 84 75 114" fill="none" stroke="#8a6a24" stroke-width="3" stroke-linecap="round" opacity="0.42"/>
    <path d="M385 613c-22 46-47 84-75 114" fill="none" stroke="#8a6a24" stroke-width="3" stroke-linecap="round" opacity="0.42"/>
    <path d="M260 491h82l5 101c-31 30-73 30-103 0z" fill="#ebe6d9" opacity="0.86"/>
    <path d="M249 535c35 23 73 24 104 1l-4 41c-30 21-69 22-98 0z" fill="#8a8579" opacity="0.2"/>

    <path d="M184 312c-22-6-39 10-36 40 4 35 26 55 52 50z" fill="#ebe6d9" opacity="0.82"/>
    <path d="M417 312c22-6 39 10 36 40-4 35-26 55-52 50z" fill="#ebe6d9" opacity="0.76"/>
    <path d="M164 333c15 0 26 11 28 31" fill="none" stroke="#8a8579" stroke-width="5" stroke-linecap="round" opacity="0.4"/>
    <path d="M436 333c-15 0-26 11-28 31" fill="none" stroke="#8a8579" stroke-width="5" stroke-linecap="round" opacity="0.34"/>

    <path d="M301 149c79 0 129 57 130 158 1 92-44 165-111 176-77 13-143-48-150-151-7-105 43-183 131-183z" fill="url(#faceShade)"/>
    <path d="M199 355c26 83 85 124 146 109 34-8 61-30 78-62-4 49-45 89-99 98-70 11-132-44-145-130z" fill="#8a8579" opacity="0.16"/>
    <path d="M201 333c5 60 39 102 94 104 57 2 95-36 106-99 2 74-36 133-95 141-67 9-118-51-105-146z" fill="#8a8579" opacity="0.18"/>

    <path d="M184 293c-2-73 29-122 83-146 33-15 85-14 121 11 36 25 52 63 50 116-16-55-51-83-106-84-53-1-95 22-126 69-7 11-14 23-22 34z" fill="#262630"/>
    <path d="M194 245c35-56 82-84 141-80 32 2 61 16 80 42-28-13-57-18-88-15-52 5-93 30-123 75z" fill="#8a8579" opacity="0.92"/>
    <path d="M208 192c24-32 58-51 101-57 23-3 47 2 70 16-31-5-61-1-90 12-36 15-63 38-81 67z" fill="#ebe6d9" opacity="0.42"/>
    <path d="M187 297c26-34 42-67 47-101 11 34 37 52 78 55 45 3 82 17 111 43-9-86-54-139-124-139-75 0-119 54-112 142z" fill="#262630" opacity="0.75"/>
    <path d="M202 229c31-43 69-65 115-65 31 0 58 10 82 30" fill="none" stroke="#c79a3f" stroke-width="5" stroke-linecap="round" opacity="0.38"/>
    <path d="M184 293c-3-79 34-130 100-150" fill="none" stroke="url(#goldRim)" stroke-width="9" stroke-linecap="round"/>

    <path d="M227 301c20-12 42-12 62 0" fill="none" stroke="#262630" stroke-width="8" stroke-linecap="round" opacity="0.66"/>
    <path d="M319 301c20-12 42-12 62 0" fill="none" stroke="#262630" stroke-width="8" stroke-linecap="round" opacity="0.66"/>
    <path d="M232 331c18 10 39 9 57-2" fill="none" stroke="#0b0b0d" stroke-width="6" stroke-linecap="round" opacity="0.88"/>
    <path d="M325 329c18 12 39 13 57 2" fill="none" stroke="#0b0b0d" stroke-width="6" stroke-linecap="round" opacity="0.88"/>
    <path d="M222 331c19-22 51-24 75-4 20-19 52-20 74 0" fill="none" stroke="#8a6a24" stroke-width="6" stroke-linecap="round" stroke-linejoin="round" opacity="0.9"/>
    <path d="M292 329h22" fill="none" stroke="#8a6a24" stroke-width="5" stroke-linecap="round" opacity="0.9"/>
    <path d="M248 353c14 7 30 7 45-1" fill="none" stroke="#c79a3f" stroke-width="2.5" stroke-linecap="round" opacity="0.4"/>
    <path d="M328 352c14 8 31 8 47 1" fill="none" stroke="#c79a3f" stroke-width="2.5" stroke-linecap="round" opacity="0.32"/>

    <path d="M304 345c-3 21-12 43-25 63 14 12 34 12 50 0" fill="none" stroke="#8a8579" stroke-width="6" stroke-linecap="round" stroke-linejoin="round" opacity="0.55"/>
    <path d="M251 429c31 21 67 23 103 3-13 28-35 44-64 43-26-2-41-18-39-46z" fill="#8a8579" opacity="0.24"/>
    <path d="M266 430c30 17 59 16 87-2" fill="none" stroke="#0b0b0d" stroke-width="6" stroke-linecap="round" opacity="0.78"/>
    <path d="M281 443c16 9 33 9 50 0" fill="none" stroke="#ebe6d9" stroke-width="4" stroke-linecap="round" opacity="0.48"/>
    <path d="M219 376c12 37 32 63 61 77" fill="none" stroke="#8a8579" stroke-width="8" stroke-linecap="round" opacity="0.24"/>
    <path d="M385 377c-11 35-31 60-58 75" fill="none" stroke="#8a8579" stroke-width="8" stroke-linecap="round" opacity="0.2"/>

    <path d="M212 286c22-19 50-26 82-20" fill="none" stroke="#ebe6d9" stroke-width="3" stroke-linecap="round" opacity="0.32"/>
    <path d="M326 267c27-5 52 1 75 19" fill="none" stroke="#ebe6d9" stroke-width="3" stroke-linecap="round" opacity="0.24"/>
    <path d="M228 371c-14 2-25 8-34 18" fill="none" stroke="#8a8579" stroke-width="4" stroke-linecap="round" opacity="0.26"/>
    <path d="M373 373c15 2 27 8 36 18" fill="none" stroke="#8a8579" stroke-width="4" stroke-linecap="round" opacity="0.22"/>
    <path d="M199 338c-5 94 49 158 118 147 61-9 102-69 101-153" fill="none" stroke="#0b0b0d" stroke-width="5" stroke-linecap="round" opacity="0.24"/>
    <path d="M196 323c4-80 37-133 96-158" fill="none" stroke="#c79a3f" stroke-width="5" stroke-linecap="round" opacity="0.22"/>
  </g>
</svg>
