<svg width="49" height="49" viewBox="0 0 49 49" fill="none" xmlns="http://www.w3.org/2000/svg">
<path d="M12.0664 6.5H36.0664V3.5H45.0664V12.5H38.1964L27.6964 23H36.0664V20H45.0664V29H36.0664V26H27.6814L38.1814 36.5H45.0664V45.5H36.0664V42.5H12.0664V45.5H3.06641V36.5H9.93641L20.4364 26H12.0664V29H3.06641V20H12.0664V23H20.4364L9.93641 12.5H3.06641V3.5H12.0664V6.5ZM6.06641 42.5H9.06641V39.5H6.06641V42.5ZM39.0664 42.5H42.0664V39.5H39.0664V42.5ZM12.0664 38.615V39.5H36.0664V38.615L24.0664 26.615L12.0664 38.615ZM6.06641 26H9.06641V23H6.06641V26ZM39.0664 26H42.0664V23H39.0664V26ZM12.0664 10.385L24.0664 22.385L36.0664 10.385V9.5H12.0664V10.385ZM6.06641 9.5H9.06641V6.5H6.06641V9.5ZM39.0664 9.5H42.0664V6.5H39.0664V9.5Z" fill="black"/>
</svg>
