<svg width="49" height="48" viewBox="0 0 49 48" fill="none" xmlns="http://www.w3.org/2000/svg">
<g clip-path="url(#clip0_748_9396)">
<path d="M43.4426 25.6536L34.4426 21.1536C34.2332 21.0481 34.002 20.9932 33.7676 20.9932C33.5331 20.9932 33.3019 21.0481 33.0926 21.1536L24.0926 25.6536C23.8452 25.7783 23.6372 25.969 23.4916 26.2046C23.3459 26.4403 23.2684 26.7116 23.2676 26.9886V37.4886C23.2684 37.7656 23.3459 38.037 23.4916 38.2726C23.6372 38.5083 23.8452 38.699 24.0926 38.8236L33.0926 43.3236C33.3019 43.4291 33.5331 43.4841 33.7676 43.4841C34.002 43.4841 34.2332 43.4291 34.4426 43.3236L43.4426 38.8236C43.69 38.699 43.898 38.5083 44.0436 38.2726C44.1892 38.037 44.2667 37.7656 44.2676 37.4886V26.9886C44.2667 26.7116 44.1892 26.4403 44.0436 26.2046C43.898 25.969 43.69 25.7783 43.4426 25.6536ZM33.7676 24.1536L39.4076 26.9886L33.7676 29.8086L28.1276 26.9886L33.7676 24.1536ZM26.2676 29.4036L32.2676 32.4036V39.5436L26.2676 36.5436V29.4036ZM35.2676 39.5436V32.4186L41.2676 29.4186V36.5586L35.2676 39.5436Z" fill="black"/>
<path d="M34.468 10.6751L25.468 6.17511C25.2586 6.0696 25.0274 6.01465 24.793 6.01465C24.5585 6.01465 24.3273 6.0696 24.118 6.17511L15.118 10.6751C14.8706 10.7998 14.6626 10.9905 14.517 11.2261C14.3713 11.4617 14.2938 11.7331 14.293 12.0101V22.5101C14.2938 22.7871 14.3713 23.0585 14.517 23.2941C14.6626 23.5297 14.8706 23.7205 15.118 23.8451L24.118 28.3451C24.3273 28.4506 24.5585 28.5056 24.793 28.5056C25.0274 28.5056 25.2586 28.4506 25.468 28.3451L34.468 23.8451C34.7153 23.7205 34.9234 23.5297 35.069 23.2941C35.2146 23.0585 35.2921 22.7871 35.293 22.5101V12.0101C35.2921 11.7331 35.2146 11.4617 35.069 11.2261C34.9234 10.9905 34.7153 10.7998 34.468 10.6751ZM24.793 9.17511L30.433 12.0101L24.793 14.8301L19.153 12.0101L24.793 9.17511ZM17.293 14.4251L23.293 17.4251V24.5651L17.293 21.5651V14.4251ZM26.293 24.5651V17.4401L32.293 14.4401V21.5801L26.293 24.5651Z" fill="black"/>
<path d="M25.4582 25.6536L16.4582 21.1536C16.2488 21.0481 16.0177 20.9932 15.7832 20.9932C15.5488 20.9932 15.3176 21.0481 15.1082 21.1536L6.1082 25.6536C5.86083 25.7783 5.65281 25.969 5.50719 26.2046C5.36157 26.4403 5.28404 26.7116 5.2832 26.9886V37.4886C5.28404 37.7656 5.36157 38.037 5.50719 38.2726C5.65281 38.5083 5.86083 38.699 6.1082 38.8236L15.1082 43.3236C15.3176 43.4291 15.5488 43.4841 15.7832 43.4841C16.0177 43.4841 16.2488 43.4291 16.4582 43.3236L25.4582 38.8236C25.7056 38.699 25.9136 38.5083 26.0592 38.2726C26.2048 38.037 26.2824 37.7656 26.2832 37.4886V26.9886C26.2824 26.7116 26.2048 26.4403 26.0592 26.2046C25.9136 25.969 25.7056 25.7783 25.4582 25.6536ZM15.7832 24.1536L21.4232 26.9886L15.7832 29.8086L10.1432 26.9886L15.7832 24.1536ZM8.2832 29.4036L14.2832 32.4036V39.5436L8.2832 36.5436V29.4036ZM17.2832 39.5436V32.4186L23.2832 29.4186V36.5586L17.2832 39.5436Z" fill="black"/>
</g>
<defs>
<clipPath id="clip0_748_9396">
<rect width="48" height="48" fill="white" transform="translate(0.78418)"/>
</clipPath>
</defs>
</svg>
