<svg width="49" height="49" viewBox="0 0 49 49" fill="none" xmlns="http://www.w3.org/2000/svg">
<g clip-path="url(#clip0_742_1948)">
<path d="M39.2842 21.5H36.2842V24.5H39.2842C40.4773 24.5013 41.6211 24.9758 42.4647 25.8195C43.3083 26.6631 43.7829 27.8069 43.7842 29V35H46.7842V29C46.7819 27.0116 45.991 25.1053 44.5849 23.6992C43.1789 22.2932 41.2726 21.5023 39.2842 21.5Z" fill="black"/>
<path d="M36.2842 6.5C37.1742 6.5 38.0442 6.76392 38.7842 7.25839C39.5243 7.75285 40.101 8.45566 40.4416 9.27792C40.7822 10.1002 40.8714 11.005 40.6977 11.8779C40.5241 12.7508 40.0955 13.5526 39.4662 14.182C38.8368 14.8113 38.035 15.2399 37.1621 15.4135C36.2892 15.5872 35.3844 15.4981 34.5621 15.1575C33.7398 14.8169 33.037 14.2401 32.5426 13.5001C32.0481 12.76 31.7842 11.89 31.7842 11C31.7842 9.80653 32.2583 8.66193 33.1022 7.81802C33.9461 6.97411 35.0907 6.5 36.2842 6.5ZM36.2842 3.5C34.8008 3.5 33.3508 3.93987 32.1174 4.76398C30.884 5.58809 29.9227 6.75943 29.3551 8.12987C28.7874 9.50032 28.6389 11.0083 28.9283 12.4632C29.2177 13.918 29.932 15.2544 30.9809 16.3033C32.0298 17.3522 33.3661 18.0665 34.821 18.3559C36.2759 18.6453 37.7839 18.4968 39.1543 17.9291C40.5248 17.3614 41.6961 16.4001 42.5202 15.1668C43.3443 13.9334 43.7842 12.4834 43.7842 11C43.7842 9.01088 42.994 7.10322 41.5875 5.6967C40.181 4.29018 38.2733 3.5 36.2842 3.5Z" fill="black"/>
<path d="M34.7842 45.5H31.7842V42.5C31.7829 41.3069 31.3083 40.1631 30.4647 39.3195C29.6211 38.4758 28.4773 38.0013 27.2842 38H21.2842C20.0911 38.0013 18.9473 38.4758 18.1036 39.3195C17.26 40.1631 16.7855 41.3069 16.7842 42.5V45.5H13.7842V42.5C13.7865 40.5116 14.5774 38.6053 15.9835 37.1993C17.3895 35.7933 19.2958 35.0023 21.2842 35H27.2842C29.2726 35.0023 31.1789 35.7933 32.5849 37.1993C33.9909 38.6053 34.7818 40.5116 34.7842 42.5V45.5Z" fill="black"/>
<path d="M24.2842 20C25.1742 20 26.0442 20.2639 26.7842 20.7584C27.5243 21.2529 28.101 21.9557 28.4416 22.7779C28.7822 23.6002 28.8714 24.505 28.6977 25.3779C28.5241 26.2508 28.0955 27.0526 27.4662 27.682C26.8368 28.3113 26.035 28.7399 25.1621 28.9135C24.2892 29.0872 23.3844 28.9981 22.5621 28.6575C21.7398 28.3169 21.037 27.7401 20.5426 27.0001C20.0481 26.26 19.7842 25.39 19.7842 24.5C19.7842 23.3065 20.2583 22.1619 21.1022 21.318C21.9461 20.4741 23.0907 20 24.2842 20ZM24.2842 17C22.8008 17 21.3508 17.4399 20.1174 18.264C18.884 19.0881 17.9227 20.2594 17.3551 21.6299C16.7874 23.0003 16.6389 24.5083 16.9283 25.9632C17.2177 27.418 17.932 28.7544 18.9809 29.8033C20.0298 30.8522 21.3661 31.5665 22.821 31.8559C24.2759 32.1453 25.7839 31.9968 27.1543 31.4291C28.5248 30.8614 29.6961 29.9001 30.5202 28.6668C31.3443 27.4334 31.7842 25.9834 31.7842 24.5C31.7842 22.5109 30.994 20.6032 29.5875 19.1967C28.181 17.7902 26.2733 17 24.2842 17Z" fill="black"/>
<path d="M12.2842 21.5H9.28418C7.29577 21.5023 5.38948 22.2933 3.98347 23.6993C2.57745 25.1053 1.78652 27.0116 1.78418 29V35H4.78418V29C4.78549 27.8069 5.26002 26.6631 6.10365 25.8195C6.94728 24.9758 8.09111 24.5013 9.28418 24.5H12.2842V21.5Z" fill="black"/>
<path d="M12.2842 6.5C13.1742 6.5 14.0442 6.76392 14.7842 7.25839C15.5243 7.75285 16.101 8.45566 16.4416 9.27792C16.7822 10.1002 16.8714 11.005 16.6977 11.8779C16.5241 12.7508 16.0955 13.5526 15.4662 14.182C14.8368 14.8113 14.035 15.2399 13.1621 15.4135C12.2892 15.5872 11.3844 15.4981 10.5621 15.1575C9.73984 14.8169 9.03704 14.2401 8.54257 13.5001C8.0481 12.76 7.78418 11.89 7.78418 11C7.78418 9.80653 8.25829 8.66193 9.1022 7.81802C9.94612 6.97411 11.0907 6.5 12.2842 6.5ZM12.2842 3.5C10.8008 3.5 9.35077 3.93987 8.11741 4.76398C6.88404 5.58809 5.92274 6.75943 5.35509 8.12987C4.78743 9.50032 4.6389 11.0083 4.92829 12.4632C5.21768 13.918 5.93199 15.2544 6.98088 16.3033C8.02978 17.3522 9.36615 18.0665 10.821 18.3559C12.2759 18.6453 13.7839 18.4968 15.1543 17.9291C16.5248 17.3614 17.6961 16.4001 18.5202 15.1668C19.3443 13.9334 19.7842 12.4834 19.7842 11C19.7842 9.01088 18.994 7.10322 17.5875 5.6967C16.181 4.29018 14.2733 3.5 12.2842 3.5Z" fill="black"/>
</g>
<defs>
<clipPath id="clip0_742_1948">
<rect width="48" height="48" fill="white" transform="translate(0.28418 0.5)"/>
</clipPath>
</defs>
</svg>
